<svg width="32" height="32" viewBox="0 0 32 32" fill="none" xmlns="http://www.w3.org/2000/svg">
<path d="M5.25002 27.2275C5.0228 27.2268 4.80507 27.1362 4.6444 26.9756C4.48373 26.8149 4.39318 26.5972 4.39252 26.37V25.8125C4.39318 25.5852 4.48373 25.3675 4.6444 25.2068C4.80507 25.0462 5.0228 24.9556 5.25002 24.955H7.35002V15.7925C7.35067 15.2518 7.56539 14.7334 7.94721 14.3507C8.32903 13.9679 8.84688 13.7519 9.38752 13.75H10.3025V8.70496H9.20252C8.98239 8.70496 8.77127 8.61751 8.61562 8.46186C8.45996 8.3062 8.37252 8.09509 8.37252 7.87496V6.73246C8.37252 6.51233 8.45996 6.30121 8.61562 6.14556C8.77127 5.9899 8.98239 5.90246 9.20252 5.90246H16.1325C16.3526 5.90246 16.5638 5.9899 16.7194 6.14556C16.8751 6.30121 16.9625 6.51233 16.9625 6.73246V7.87496C16.9625 8.09509 16.8751 8.3062 16.7194 8.46186C16.5638 8.61751 16.3526 8.70496 16.1325 8.70496H15.0325V13.75H15.9475C16.2165 13.749 16.483 13.8011 16.7318 13.9032C16.9806 14.0054 17.2069 14.1557 17.3975 14.3454C17.5882 14.5351 17.7395 14.7606 17.8429 15.0089C17.9463 15.2572 17.9997 15.5235 18 15.7925V18.3875C18.1149 18.3298 18.238 18.2901 18.365 18.27V15.25C18.365 15.0597 18.4406 14.8772 18.5752 14.7426C18.7097 14.6081 18.8922 14.5325 19.0825 14.5325H20.8725L24.4675 5.29746C24.5067 5.19624 24.5656 5.10379 24.6407 5.02543C24.7158 4.94707 24.8057 4.88435 24.9052 4.84089C25.0046 4.79743 25.1117 4.77409 25.2202 4.77222C25.3288 4.77034 25.4366 4.78996 25.5375 4.82996L27.09 5.43746C27.2926 5.51673 27.4556 5.67303 27.5432 5.87217C27.6308 6.0713 27.636 6.29703 27.5575 6.49996L22.8325 18.6025C22.9689 18.7261 23.0779 18.877 23.1524 19.0454C23.2268 19.2137 23.2652 19.3958 23.265 19.58V24.955H25.365C25.5922 24.9556 25.81 25.0462 25.9706 25.2068C26.1313 25.3675 26.2219 25.5852 26.2225 25.8125V26.37C26.2219 26.5972 26.1313 26.8149 25.9706 26.9756C25.81 27.1362 25.5922 27.2268 25.365 27.2275H5.25002ZM5.25002 25.7C5.22018 25.7 5.19157 25.7118 5.17047 25.7329C5.14937 25.754 5.13752 25.7826 5.13752 25.8125V26.37C5.13752 26.3847 5.14043 26.3994 5.14608 26.413C5.15173 26.4267 5.16002 26.4391 5.17047 26.4495C5.18091 26.46 5.19332 26.4682 5.20697 26.4739C5.22061 26.4795 5.23524 26.4825 5.25002 26.4825H25.3725C25.3873 26.4825 25.4019 26.4795 25.4156 26.4739C25.4292 26.4682 25.4416 26.46 25.4521 26.4495C25.4625 26.4391 25.4708 26.4267 25.4765 26.413C25.4821 26.3994 25.485 26.3847 25.485 26.37V25.8125C25.485 25.7826 25.4732 25.754 25.4521 25.7329C25.431 25.7118 25.4024 25.7 25.3725 25.7H5.25002ZM22.5275 24.95V19.58C22.5278 19.4734 22.4988 19.3687 22.4437 19.2775C22.3886 19.1862 22.3095 19.1119 22.215 19.0625C22.1286 19.0179 22.0322 18.9964 21.935 19H18.575C18.4223 19.0019 18.2764 19.0638 18.1688 19.1723C18.0613 19.2808 18.0007 19.4272 18 19.58V24.9375L22.5275 24.95ZM17.25 24.9375V15.7925C17.25 15.6217 17.2164 15.4527 17.1511 15.295C17.0857 15.1372 16.99 14.9939 16.8693 14.8732C16.7485 14.7525 16.6052 14.6567 16.4475 14.5914C16.2898 14.5261 16.1207 14.4925 15.95 14.4925H9.38752C9.2168 14.4925 9.04775 14.5261 8.89003 14.5914C8.73231 14.6567 8.58899 14.7525 8.46828 14.8732C8.34756 14.9939 8.2518 15.1372 8.18647 15.295C8.12114 15.4527 8.08752 15.6217 8.08752 15.7925V24.9375H17.25ZM21.935 18.25C21.99 18.25 22.045 18.25 22.1 18.25H22.1375V18.3075L26.86 6.21746C26.8675 6.19753 26.867 6.17548 26.8586 6.15591C26.8502 6.13634 26.8346 6.12077 26.815 6.11246L25.26 5.50496H25.2325C25.2161 5.50498 25.2002 5.51003 25.1868 5.51942C25.1734 5.52881 25.1631 5.54208 25.1575 5.55746L21.5925 14.705V18.25H21.935ZM20.8 18.25V15.265H19.1V18.25H20.8ZM14.2875 13.7175V8.71746H11.0375V13.7175H14.2875ZM9.20252 6.64746C9.19136 6.64746 9.1803 6.64966 9.16999 6.65393C9.15968 6.6582 9.15031 6.66446 9.14241 6.67235C9.13452 6.68025 9.12826 6.68962 9.12399 6.69993C9.11972 6.71024 9.11752 6.7213 9.11752 6.73246V7.87496C9.11752 7.88612 9.11972 7.89717 9.12399 7.90749C9.12826 7.9178 9.13452 7.92717 9.14241 7.93506C9.15031 7.94296 9.15968 7.94922 9.16999 7.95349C9.1803 7.95776 9.19136 7.95996 9.20252 7.95996H16.1325C16.1551 7.95996 16.1767 7.951 16.1926 7.93506C16.2086 7.91912 16.2175 7.8975 16.2175 7.87496V6.73246C16.2175 6.70992 16.2086 6.68829 16.1926 6.67235C16.1767 6.65641 16.1551 6.64746 16.1325 6.64746H9.20252ZM20.25 21.9525C20.0113 21.951 19.7784 21.8788 19.5807 21.745C19.383 21.6112 19.2294 21.4218 19.1393 21.2007C19.0492 20.9797 19.0267 20.7368 19.0745 20.503C19.1224 20.2691 19.2385 20.0547 19.4081 19.8867C19.5778 19.7188 19.7934 19.605 20.0278 19.5595C20.2621 19.5141 20.5047 19.5392 20.7248 19.6316C20.9449 19.7239 21.1327 19.8795 21.2645 20.0785C21.3962 20.2776 21.466 20.5112 21.465 20.75C21.463 21.0704 21.334 21.377 21.1062 21.6025C20.8784 21.8279 20.5705 21.9538 20.25 21.9525V21.9525ZM20.25 20.28C20.1585 20.2809 20.0693 20.3089 19.9936 20.3604C19.9179 20.4119 19.8591 20.4845 19.8245 20.5693C19.7899 20.6541 19.7811 20.7471 19.7992 20.8369C19.8173 20.9266 19.8615 21.009 19.9262 21.0737C19.991 21.1385 20.0734 21.1826 20.1631 21.2007C20.2528 21.2188 20.3459 21.2101 20.4307 21.1755C20.5154 21.1409 20.5881 21.0821 20.6396 21.0064C20.691 20.9307 20.719 20.8415 20.72 20.75C20.7207 20.6881 20.709 20.6266 20.6856 20.5693C20.6622 20.512 20.6276 20.4599 20.5838 20.4161C20.5401 20.3723 20.488 20.3378 20.4307 20.3144C20.3733 20.291 20.3119 20.2793 20.25 20.28V20.28ZM19.635 16.4225C19.552 16.4008 19.4785 16.3523 19.4261 16.2844C19.3736 16.2166 19.3451 16.1332 19.3451 16.0475C19.3451 15.9617 19.3736 15.8783 19.4261 15.8105C19.4785 15.7426 19.552 15.6941 19.635 15.6725H20.2675C20.3505 15.6941 20.424 15.7426 20.4765 15.8105C20.5289 15.8783 20.5574 15.9617 20.5574 16.0475C20.5574 16.1332 20.5289 16.2166 20.4765 16.2844C20.424 16.3523 20.3505 16.4008 20.2675 16.4225H19.635Z" fill="#5E5E5E"/>
<path d="M12.57 13.3676C12.4706 13.3676 12.3752 13.328 12.3048 13.2577C12.2345 13.1874 12.195 13.092 12.195 12.9926C12.195 12.8931 12.2345 12.7977 12.3048 12.7274C12.3752 12.6571 12.4706 12.6176 12.57 12.6176H13.6975C13.797 12.6176 13.8923 12.6571 13.9627 12.7274C14.033 12.7977 14.0725 12.8931 14.0725 12.9926C14.0725 13.092 14.033 13.1874 13.9627 13.2577C13.8923 13.328 13.797 13.3676 13.6975 13.3676H12.57Z" fill="#5E5E5E"/>
<path d="M12.57 12.1675C12.5208 12.1675 12.472 12.1578 12.4265 12.1389C12.381 12.1201 12.3397 12.0925 12.3048 12.0576C12.27 12.0228 12.2424 11.9815 12.2236 11.936C12.2047 11.8905 12.195 11.8417 12.195 11.7925C12.195 11.7432 12.2047 11.6945 12.2236 11.649C12.2424 11.6035 12.27 11.5621 12.3048 11.5273C12.3397 11.4925 12.381 11.4649 12.4265 11.446C12.472 11.4272 12.5208 11.4175 12.57 11.4175H13.6975C13.797 11.4175 13.8923 11.457 13.9627 11.5273C14.033 11.5976 14.0725 11.693 14.0725 11.7925C14.0725 11.8919 14.033 11.9873 13.9627 12.0576C13.8923 12.128 13.797 12.1675 13.6975 12.1675H12.57Z" fill="#5E5E5E"/>
<path d="M12.57 10.9675C12.4706 10.9675 12.3752 10.928 12.3048 10.8577C12.2345 10.7874 12.195 10.692 12.195 10.5925C12.195 10.4931 12.2345 10.3977 12.3048 10.3274C12.3752 10.257 12.4706 10.2175 12.57 10.2175H13.6975C13.797 10.2175 13.8923 10.257 13.9627 10.3274C14.033 10.3977 14.0725 10.4931 14.0725 10.5925C14.0725 10.692 14.033 10.7874 13.9627 10.8577C13.8923 10.928 13.797 10.9675 13.6975 10.9675H12.57Z" fill="#5E5E5E"/>
<path d="M12.57 9.76746C12.4706 9.76746 12.3752 9.72795 12.3048 9.65762C12.2345 9.5873 12.195 9.49191 12.195 9.39246C12.195 9.293 12.2345 9.19762 12.3048 9.12729C12.3752 9.05696 12.4706 9.01746 12.57 9.01746H13.6975C13.797 9.01746 13.8923 9.05696 13.9627 9.12729C14.033 9.19762 14.0725 9.293 14.0725 9.39246C14.0725 9.49191 14.033 9.5873 13.9627 9.65762C13.8923 9.72795 13.797 9.76746 13.6975 9.76746H12.57Z" fill="#5E5E5E"/>
</svg>
