<svg width="32" height="32" viewBox="0 0 32 32" fill="none" xmlns="http://www.w3.org/2000/svg">
<path d="M12.1 28.0499C11.7487 28.0475 11.4082 27.9278 11.1325 27.7099L10.775 27.4299C10.7225 27.3874 10.6725 27.3424 10.625 27.2974C10.4685 27.1445 10.3474 26.9592 10.2701 26.7545C10.1928 26.5498 10.1612 26.3306 10.1775 26.1124C10.1922 25.9318 10.2474 25.7568 10.3392 25.6005C10.431 25.4442 10.5569 25.3107 10.7075 25.2099C13.2075 23.5199 14.5675 21.7099 15.2675 20.4749C15.7623 19.6529 16.1132 18.7525 16.305 17.8124C16.3113 17.7642 16.3265 17.7175 16.35 17.6749L17.6 15.4874C17.6409 15.416 17.6952 15.3531 17.76 15.3024L17.885 14.6124L17.1975 14.7374C17.1469 14.8023 17.0841 14.8567 17.0125 14.8974L14.825 16.1474C14.7822 16.1728 14.7345 16.189 14.685 16.1949C13.7485 16.3944 12.8525 16.7511 12.035 17.2499C10.81 17.9499 8.99254 19.3099 7.30254 21.8099C7.20191 21.9609 7.06847 22.0872 6.9122 22.1794C6.75593 22.2716 6.58086 22.3273 6.40004 22.3424C6.35841 22.3449 6.31667 22.3449 6.27504 22.3424C5.87612 22.336 5.49558 22.1736 5.21504 21.8899C5.16758 21.8429 5.12332 21.7928 5.08254 21.7399L4.80254 21.3799C4.6049 21.1423 4.48717 20.8485 4.46608 20.5402C4.44498 20.2318 4.5216 19.9247 4.68504 19.6624C7.58254 15.4124 10.9125 13.8449 12.65 13.2849L13 12.3824C13.0602 12.2198 13.1691 12.0798 13.3118 11.9813C13.4546 11.8829 13.6242 11.8309 13.7975 11.8324C13.8537 11.8324 13.9098 11.8375 13.965 11.8474L15.625 12.1749C15.6879 12.1875 15.7486 12.2094 15.805 12.2399L18.6625 10.4624C18.8115 9.86456 19.085 9.30487 19.465 8.81991L20.615 7.35241C21.1592 6.66077 21.8625 6.11098 22.665 5.74991L24.2325 5.04491C24.3348 4.99929 24.4455 4.97545 24.5575 4.97491C24.7387 4.97274 24.9152 5.03274 25.0575 5.14491L25.4475 5.44991C25.511 5.49974 25.564 5.56161 25.6034 5.63197C25.6429 5.70233 25.6681 5.77979 25.6775 5.85991C25.6876 5.93946 25.6817 6.02021 25.6602 6.09746C25.6388 6.17471 25.6022 6.24693 25.5525 6.30991L24.8625 7.17491C24.7979 7.25685 24.7154 7.32305 24.6215 7.36852C24.5275 7.41399 24.4244 7.43754 24.32 7.43741C24.2618 7.43733 24.2038 7.42976 24.1475 7.41491L22.8975 9.01991C22.9426 9.10493 22.9696 9.19831 22.9769 9.29423C22.9842 9.39015 22.9716 9.48655 22.94 9.57741C23.0137 9.55041 23.0916 9.53686 23.17 9.53741C23.2844 9.53682 23.3971 9.56521 23.4975 9.61991L25.1 8.36991C25.0678 8.23933 25.0742 8.10217 25.1186 7.9752C25.163 7.84823 25.2434 7.73693 25.35 7.65491L26.215 6.97741C26.3228 6.89313 26.4557 6.84736 26.5925 6.84741H26.6675C26.7476 6.85694 26.8249 6.88243 26.8948 6.92237C26.9648 6.9623 27.0261 7.01587 27.075 7.07991L27.3825 7.46991C27.4722 7.58366 27.5287 7.71992 27.5459 7.8637C27.5631 8.00749 27.5403 8.15323 27.48 8.28491L26.7775 9.85241C26.4158 10.6552 25.8651 11.3586 25.1725 11.9024L23.705 13.0524C23.2189 13.432 22.6585 13.7054 22.06 13.8549L20.285 16.7124C20.3159 16.7687 20.3379 16.8294 20.35 16.8924L20.675 18.5524C20.7168 18.7514 20.6861 18.9587 20.5885 19.1371C20.4908 19.3154 20.3327 19.4529 20.1425 19.5249L19.2425 19.8674C18.68 21.6174 17.11 24.9349 12.8625 27.8324C12.6365 27.981 12.3704 28.0569 12.1 28.0499V28.0499ZM17.0325 17.9999C16.8222 19.005 16.4462 19.9681 15.92 20.8499C15.17 22.1449 13.75 24.0599 11.13 25.8324C11.0712 25.8716 11.0221 25.9237 10.9866 25.9848C10.9511 26.046 10.93 26.1144 10.925 26.1849C10.9195 26.2924 10.9372 26.3999 10.9769 26.5C11.0166 26.6 11.0773 26.6904 11.155 26.7649L11.2375 26.8374L11.5975 27.1174C11.7398 27.2312 11.9154 27.2952 12.0975 27.2999C12.213 27.3022 12.3265 27.2691 12.4225 27.2049C16.515 24.4174 18 21.2499 18.525 19.5924C18.5558 19.4968 18.6078 19.4094 18.677 19.3367C18.7463 19.264 18.8311 19.2078 18.925 19.1724L19.8625 18.8174C19.887 18.8078 19.907 18.7894 19.9186 18.7658C19.9302 18.7422 19.9325 18.7151 19.925 18.6899L19.6075 17.0699L18.2025 15.9699L17.0325 17.9999ZM13.7825 12.5874C13.7619 12.5853 13.7412 12.5904 13.7239 12.6018C13.7066 12.6131 13.6938 12.6301 13.6875 12.6499L13.3325 13.5874C13.297 13.6817 13.2406 13.7668 13.1674 13.8361C13.0942 13.9054 13.0062 13.9571 12.91 13.9874C11.2725 14.4999 8.09504 15.9999 5.30504 20.0849C5.23269 20.2155 5.20228 20.3652 5.21793 20.5137C5.23359 20.6622 5.29455 20.8023 5.39254 20.9149L5.67254 21.2724C5.69558 21.3016 5.72064 21.3292 5.74754 21.3549C5.81557 21.427 5.89722 21.4849 5.98777 21.5252C6.07831 21.5656 6.17595 21.5875 6.27504 21.5899H6.32754C6.39796 21.5846 6.46627 21.5634 6.52732 21.5279C6.58837 21.4924 6.64058 21.4435 6.68004 21.3849C8.45254 18.7649 10.3675 17.3324 11.6625 16.5924C12.5497 16.0651 13.5176 15.6875 14.5275 15.4749L16.5425 14.3099L15.44 12.9049L13.8175 12.5874H13.7825ZM18.5675 15.3024L19.705 16.1924L21.045 14.0399L18.69 14.4699L18.54 15.2824L18.5675 15.3024ZM17.21 13.9424C17.2161 13.952 17.2228 13.9612 17.23 13.9699L21.6425 13.1674C22.221 13.0625 22.7651 12.8179 23.2275 12.4549L24.695 11.3049C25.2928 10.8364 25.768 10.2299 26.08 9.53741L26.7825 7.97241C26.7868 7.96566 26.789 7.95787 26.789 7.94991C26.789 7.94195 26.7868 7.93416 26.7825 7.92741L26.5625 7.64741L25.84 8.21241C25.8733 8.34297 25.8673 8.48043 25.8229 8.60761C25.7784 8.73478 25.6974 8.84602 25.59 8.92741L23.9225 10.2499C23.8011 10.3448 23.6516 10.3967 23.4975 10.3974C23.3832 10.398 23.2705 10.3696 23.17 10.3149L22.985 10.4599C22.7708 10.6276 22.5071 10.7199 22.235 10.7224C22.0454 10.7258 21.8576 10.6849 21.6866 10.6028C21.5156 10.5208 21.3661 10.4 21.25 10.2499C21.2049 10.1931 21.1475 10.1471 21.0822 10.1155C21.0168 10.0839 20.9451 10.0675 20.8725 10.0674C20.7841 10.0677 20.6974 10.0928 20.6225 10.1399L16.3175 12.8049L17.21 13.9424ZM20.88 9.30241C21.0667 9.30209 21.2509 9.34451 21.4186 9.42641C21.5863 9.50831 21.733 9.62752 21.8475 9.77491L21.8925 9.82491C21.9347 9.71761 21.9929 9.61731 22.065 9.52741L22.21 9.33991C22.1468 9.22212 22.1192 9.08843 22.1308 8.95522C22.1423 8.82201 22.1924 8.69506 22.275 8.58991L23.5825 6.91991C23.6466 6.8377 23.7285 6.77113 23.822 6.72522C23.9156 6.67931 24.0183 6.65527 24.1225 6.65491C24.1818 6.65445 24.2408 6.66287 24.2975 6.67991L24.865 5.95741L24.585 5.73741C24.5762 5.73393 24.5664 5.73393 24.5575 5.73741H24.54L22.9725 6.44241C22.2805 6.75508 21.6741 7.23021 21.205 7.82741L20.055 9.29241C19.9268 9.45871 19.8123 9.63512 19.7125 9.81991L20.23 9.49991C20.4243 9.37533 20.6493 9.30698 20.88 9.30241V9.30241Z" fill="#5E5E5E"/>
<path d="M20.6426 12.9999C20.3469 12.9999 20.0633 12.8825 19.8542 12.6734C19.6451 12.4643 19.5276 12.1806 19.5276 11.8849C19.5276 11.5892 19.6451 11.3056 19.8542 11.0965C20.0633 10.8874 20.3469 10.7699 20.6426 10.7699C20.6876 10.7674 20.7326 10.7674 20.7776 10.7699C21.0687 10.8063 21.3338 10.9556 21.5158 11.1857C21.6977 11.4159 21.7819 11.7083 21.7501 11.9999C21.7222 12.2742 21.5935 12.5284 21.3889 12.7131C21.1842 12.8979 20.9183 13.0001 20.6426 12.9999V12.9999ZM20.6426 11.5199C20.5618 11.5201 20.4835 11.5474 20.4201 11.5974C20.3469 11.6564 20.2994 11.7415 20.2878 11.8348C20.2761 11.9281 20.3011 12.0223 20.3576 12.0974C20.3914 12.1415 20.4349 12.1771 20.4848 12.2014C20.5347 12.2257 20.5896 12.238 20.6451 12.2374C20.7258 12.2369 20.804 12.2096 20.8676 12.1599C20.9063 12.1298 20.9385 12.0921 20.9622 12.0491C20.9858 12.0061 21.0004 11.9588 21.0051 11.9099C21.0158 11.8144 20.9889 11.7185 20.9301 11.6424C20.8681 11.5654 20.7783 11.516 20.6801 11.5049L20.6426 11.5199Z" fill="#5E5E5E"/>
</svg>
