<svg width="32" height="32" viewBox="0 0 32 32" fill="none" xmlns="http://www.w3.org/2000/svg">
<path d="M15.8725 27.5901C15.0341 27.5904 14.2178 27.3204 13.545 26.8201C12.6125 26.1251 12.09 25.0701 12.045 24.3901C12.045 24.2326 12.0275 24.0701 12.0225 23.9051C11.985 23.0826 11.95 22.2301 11.7375 21.7826C11.4875 21.2251 11.2375 20.4751 11.6275 20.0726C11.7023 19.9978 11.7918 19.9394 11.8904 19.9011C11.9889 19.8628 12.0944 19.8454 12.2 19.8501C12.4124 19.8576 12.6219 19.9007 12.82 19.9776C13.7825 20.3276 14.1925 21.3376 14.37 22.1251C14.4257 22.3955 14.4467 22.6718 14.4325 22.9476C14.3975 23.7701 14.7425 24.3576 15.38 24.5651C15.5417 24.6165 15.7104 24.6426 15.88 24.6426C16.1307 24.644 16.3782 24.5867 16.6027 24.4751C16.8272 24.3635 17.0223 24.2008 17.1725 24.0001C17.8725 23.0001 16.6375 21.4251 15.21 19.5876C15.0125 19.3376 14.815 19.0876 14.6175 18.8376C13.91 17.9101 13.6175 17.0426 13.7325 16.2576C13.8062 15.7685 14.0571 15.3236 14.4375 15.0076C14.8135 14.691 15.2862 14.512 15.7775 14.5001V14.0501H13.8725C13.7741 14.0488 13.6801 14.0091 13.6106 13.9395C13.541 13.8699 13.5013 13.7759 13.5 13.6776V12.7701H12.225C11.8871 12.7724 11.5559 12.6753 11.2727 12.4908C10.9896 12.3064 10.7669 12.0426 10.6325 11.7326C10.615 11.7051 10.195 11.1076 9.82252 10.5826C8.34752 8.49506 7.98252 7.97256 7.96752 7.91256C7.87964 7.56169 7.91041 7.1916 8.05502 6.86006C8.0891 6.78209 8.1346 6.70963 8.19002 6.64506L9.29002 5.35006C9.31649 5.31583 9.3407 5.27992 9.36252 5.24256C9.51839 4.98517 9.73878 4.77297 10.0019 4.62695C10.265 4.48093 10.5616 4.40617 10.8625 4.41006H21.16C21.4609 4.40617 21.7576 4.48093 22.0207 4.62695C22.2838 4.77297 22.5042 4.98517 22.66 5.24256C22.6813 5.27947 22.7055 5.31459 22.7325 5.34756L23.8325 6.64506C23.8894 6.7127 23.9358 6.78856 23.97 6.87006C24.1125 7.19869 24.1424 7.56519 24.055 7.91256C24.0289 8.01662 23.9821 8.11438 23.9175 8.20006L21.4525 11.6051C21.4237 11.6452 21.4001 11.6889 21.3825 11.7351C21.2445 12.0433 21.0203 12.3051 20.7368 12.4887C20.4533 12.6724 20.1228 12.7701 19.785 12.7701H18.8325V13.6776C18.8312 13.7779 18.7902 13.8737 18.7186 13.9439C18.6469 14.0142 18.5504 14.0532 18.45 14.0526H16.545V14.5801C16.8773 14.6593 17.1981 14.7803 17.5 14.9401C18.47 15.4401 18.72 16.3576 18.2075 17.5126C18.102 17.751 18.0616 18.0132 18.0906 18.2724C18.1196 18.5315 18.2169 18.7783 18.3725 18.9876C19.095 19.9426 20.03 21.2376 20.3725 22.0651C20.715 22.8926 20.5825 24.1351 20.0175 25.1851C19.7027 25.7755 19.2603 26.2884 18.7223 26.6863C18.1843 27.0841 17.5643 27.357 16.9075 27.4851C16.5786 27.5537 16.2435 27.5889 15.9075 27.5901H15.8725ZM12.19 20.5901C12.2096 20.8939 12.2949 21.1899 12.44 21.4576C12.715 22.0376 12.755 22.9576 12.795 23.8626C12.795 24.0292 12.8025 24.1892 12.8175 24.3426C12.881 24.7187 13.0181 25.0787 13.221 25.4017C13.424 25.7248 13.6887 26.0046 14 26.2251C14.5635 26.6314 15.2403 26.8508 15.935 26.8526C16.2098 26.8518 16.4835 26.8173 16.75 26.7501C17.2989 26.6479 17.8175 26.4225 18.2666 26.0908C18.7157 25.7591 19.0836 25.3297 19.3425 24.8351C19.8775 23.8351 19.8875 22.8526 19.6725 22.3526C19.3375 21.5726 18.3275 20.1851 17.755 19.4276C17.5213 19.1134 17.375 18.7429 17.3311 18.3538C17.2872 17.9647 17.3472 17.5709 17.505 17.2126C18.02 16.0551 17.36 15.7126 17.1425 15.6001C16.9523 15.4986 16.7531 15.4149 16.5475 15.3501V15.6551C16.7642 15.7274 16.9529 15.8654 17.0873 16.0501C17.2217 16.2347 17.2952 16.4567 17.2975 16.6851C17.2838 16.9759 17.1587 17.2503 16.948 17.4513C16.7374 17.6522 16.4574 17.7644 16.1663 17.7644C15.8751 17.7644 15.5952 17.6522 15.3845 17.4513C15.1739 17.2503 15.0487 16.9759 15.035 16.6851C15.0373 16.4567 15.1108 16.2347 15.2452 16.0501C15.3797 15.8654 15.5684 15.7274 15.785 15.6551V15.2501C15.4872 15.2554 15.1989 15.3562 14.9625 15.5376L14.9275 15.5676C14.6893 15.7719 14.5367 16.0584 14.5 16.3701C14.4175 16.9501 14.6675 17.6201 15.25 18.3701C15.3825 18.5451 15.835 19.1201 15.835 19.1201C17.425 21.2001 18.8175 23.0001 17.8 24.4276C17.5775 24.727 17.2879 24.97 16.9545 25.1372C16.621 25.3043 16.253 25.3909 15.88 25.3901C15.6325 25.3889 15.3864 25.351 15.15 25.2776C14.18 24.9626 13.63 24.0801 13.68 22.9176C13.6905 22.7047 13.6746 22.4914 13.6325 22.2826C13.5225 21.7826 13.2375 20.9251 12.5675 20.6801C12.4548 20.6328 12.3346 20.6058 12.2125 20.6001C12.2051 20.5987 12.1975 20.5987 12.19 20.6001V20.5901ZM15.7775 16.3951C15.7071 16.4773 15.6681 16.5818 15.6675 16.6901C15.6878 16.8059 15.7483 16.911 15.8384 16.9866C15.9285 17.0623 16.0424 17.1038 16.16 17.1038C16.2777 17.1038 16.3915 17.0623 16.4816 16.9866C16.5717 16.911 16.6322 16.8059 16.6525 16.6901C16.6528 16.5821 16.6147 16.4775 16.545 16.3951V16.6076C16.532 16.7001 16.4861 16.7849 16.4156 16.8462C16.345 16.9075 16.2547 16.9413 16.1613 16.9413C16.0678 16.9413 15.9775 16.9075 15.907 16.8462C15.8365 16.7849 15.7905 16.7001 15.7775 16.6076V16.3951ZM18.0675 13.3026V12.7701H14.25V13.3026H18.0675ZM10.84 5.16006C10.6779 5.15921 10.5182 5.19932 10.3757 5.27668C10.2332 5.35404 10.1126 5.46613 10.025 5.60256C9.99814 5.64578 9.96893 5.68751 9.93752 5.72756L8.84252 7.01756C8.79433 7.07205 8.75624 7.1347 8.73002 7.20256C8.67897 7.3424 8.6635 7.49275 8.68502 7.64006C8.70037 7.74169 8.74075 7.83791 8.80252 7.92006L11.25 11.2901C11.2882 11.3415 11.3209 11.3968 11.3475 11.4551C11.4234 11.6246 11.547 11.7684 11.7033 11.8687C11.8596 11.9691 12.0418 12.0217 12.2275 12.0201H19.785C19.9714 12.0202 20.1539 11.9668 20.3108 11.8662C20.4677 11.7656 20.5924 11.622 20.67 11.4526C20.6971 11.3932 20.7306 11.3371 20.77 11.2851L23.2 7.91506C23.2613 7.83358 23.3017 7.73828 23.3175 7.63756C23.3381 7.49004 23.3218 7.33971 23.27 7.20006C23.2441 7.13335 23.2069 7.07162 23.16 7.01756L22.0625 5.72506C22.0305 5.68687 22.0021 5.64587 21.9775 5.60256C21.8894 5.46661 21.7687 5.35489 21.6263 5.2776C21.484 5.20031 21.3245 5.15989 21.1625 5.16006H10.84ZM14.195 10.5751C13.9687 10.5777 13.7505 10.4905 13.5884 10.3326C13.4262 10.1747 13.3333 9.95889 13.33 9.73256V7.29006C13.3333 7.06373 13.4262 6.84794 13.5884 6.69001C13.7505 6.53207 13.9687 6.44489 14.195 6.44756H18.1275C18.2402 6.44524 18.3523 6.46523 18.4572 6.50638C18.5622 6.54752 18.6579 6.60902 18.739 6.68732C18.8201 6.76562 18.8849 6.85918 18.9297 6.96262C18.9745 7.06607 18.9984 7.17734 19 7.29006V9.73256C18.9967 9.95889 18.9038 10.1747 18.7417 10.3326C18.5795 10.4905 18.3614 10.5777 18.135 10.5751H14.195ZM14.165 7.19756C14.1522 7.19722 14.1395 7.19942 14.1275 7.20401C14.1156 7.20861 14.1046 7.21551 14.0953 7.22434C14.086 7.23316 14.0786 7.24372 14.0734 7.25543C14.0682 7.26714 14.0653 7.27975 14.065 7.29256V9.75006C14.0653 9.76286 14.0682 9.77548 14.0734 9.78718C14.0786 9.79889 14.086 9.80945 14.0953 9.81828C14.1046 9.8271 14.1156 9.83401 14.1275 9.8386C14.1395 9.8432 14.1522 9.84539 14.165 9.84506H18.13C18.1428 9.84539 18.1556 9.8432 18.1675 9.8386C18.1795 9.83401 18.1904 9.8271 18.1997 9.81828C18.209 9.80945 18.2164 9.79889 18.2216 9.78718C18.2269 9.77548 18.2297 9.76286 18.23 9.75006V7.29256C18.2297 7.27975 18.2269 7.26714 18.2216 7.25543C18.2164 7.24372 18.209 7.23316 18.1997 7.22434C18.1904 7.21551 18.1795 7.20861 18.1675 7.20401C18.1556 7.19942 18.1428 7.19722 18.13 7.19756H14.165Z" fill="#5E5E5E"/>
</svg>
