<svg width="32" height="32" viewBox="0 0 32 32" fill="none" xmlns="http://www.w3.org/2000/svg">
<path d="M11.25 11.1727C10.8243 11.1727 10.4081 11.299 10.0542 11.5355C9.70019 11.772 9.4243 12.1082 9.26138 12.5015C9.09847 12.8948 9.05584 13.3276 9.13889 13.7452C9.22195 14.1627 9.42696 14.5462 9.72799 14.8473C10.029 15.1483 10.4126 15.3533 10.8301 15.4364C11.2476 15.5194 11.6804 15.4768 12.0738 15.3139C12.4671 15.151 12.8033 14.8751 13.0398 14.5211C13.2763 14.1671 13.4025 13.751 13.4025 13.3252C13.4019 12.7546 13.1749 12.2074 12.7714 11.8039C12.3678 11.4004 11.8207 11.1734 11.25 11.1727V11.1727ZM11.25 14.8027C10.9572 14.8027 10.671 14.7159 10.4275 14.5531C10.1841 14.3904 9.9944 14.1591 9.88246 13.8885C9.77051 13.6179 9.74135 13.3202 9.79866 13.0331C9.85597 12.7459 9.99717 12.4822 10.2044 12.2753C10.4116 12.0684 10.6756 11.9277 10.9628 11.8709C11.2501 11.814 11.5477 11.8437 11.8181 11.9561C12.0885 12.0685 12.3195 12.2586 12.4818 12.5023C12.6441 12.746 12.7305 13.0324 12.73 13.3252C12.7294 13.7173 12.5732 14.0931 12.2957 14.3701C12.0182 14.6471 11.6421 14.8027 11.25 14.8027V14.8027Z" fill="#5E5E5E"/>
<path d="M11.25 9.40284C10.4738 9.40087 9.71443 9.62923 9.06806 10.059C8.4217 10.4888 7.91739 11.1008 7.61897 11.8173C7.32055 12.5339 7.24144 13.3229 7.39166 14.0844C7.54188 14.846 7.91467 15.5458 8.46284 16.0954C9.01101 16.645 9.70992 17.0196 10.4711 17.1717C11.2322 17.3239 12.0214 17.2468 12.7388 16.9502C13.4561 16.6536 14.0693 16.1509 14.5007 15.5056C14.9322 14.8603 15.1625 14.1016 15.1625 13.3253C15.1619 12.287 14.7497 11.2912 14.0164 10.556C13.2831 9.82079 12.2884 9.40615 11.25 9.40284V9.40284ZM11.25 16.5728C10.6072 16.5728 9.97886 16.3822 9.4444 16.0251C8.90994 15.668 8.49338 15.1604 8.2474 14.5666C8.00141 13.9727 7.93705 13.3192 8.06245 12.6888C8.18786 12.0584 8.49739 11.4793 8.95191 11.0247C9.40643 10.5702 9.98552 10.2607 10.616 10.1353C11.2464 10.0099 11.8999 10.0743 12.4937 10.3202C13.0876 10.5662 13.5952 10.9828 13.9523 11.5172C14.3094 12.0517 14.5 12.6801 14.5 13.3228C14.5 14.1848 14.1576 15.0114 13.5481 15.6209C12.9386 16.2304 12.112 16.5728 11.25 16.5728V16.5728Z" fill="#5E5E5E"/>
<path d="M13.9125 17.3752C13.9125 17.6225 13.9858 17.8641 14.1231 18.0697C14.2605 18.2753 14.4557 18.4355 14.6841 18.5301C14.9125 18.6247 15.1639 18.6495 15.4063 18.6012C15.6488 18.553 15.8715 18.4339 16.0464 18.2591C16.2212 18.0843 16.3402 17.8616 16.3885 17.6191C16.4367 17.3766 16.4119 17.1253 16.3173 16.8969C16.2227 16.6685 16.0625 16.4733 15.8569 16.3359C15.6514 16.1986 15.4097 16.1252 15.1625 16.1252C14.831 16.1252 14.513 16.2569 14.2786 16.4914C14.0442 16.7258 13.9125 17.0437 13.9125 17.3752V17.3752ZM15.1625 16.8052C15.2758 16.8052 15.3866 16.8389 15.4808 16.9019C15.575 16.9649 15.6484 17.0545 15.6916 17.1592C15.7349 17.264 15.7461 17.3792 15.7238 17.4904C15.7015 17.6015 15.6467 17.7035 15.5664 17.7834C15.4861 17.8634 15.3838 17.9177 15.2726 17.9395C15.1614 17.9614 15.0462 17.9497 14.9417 17.9059C14.8371 17.8622 14.7478 17.7885 14.6852 17.694C14.6226 17.5995 14.5895 17.4886 14.59 17.3752C14.59 17.2245 14.6497 17.0799 14.756 16.9731C14.8624 16.8663 15.0067 16.8059 15.1575 16.8052H15.1625Z" fill="#5E5E5E"/>
<path d="M27.1625 17.4928H25.8025C25.7581 17.4924 25.7141 17.5009 25.673 17.5178C25.6319 17.5346 25.5945 17.5595 25.5631 17.5909C25.5317 17.6223 25.5069 17.6596 25.49 17.7007C25.4732 17.7418 25.4647 17.7859 25.465 17.8303V18.8503H24.06C24.0134 18.8463 23.9665 18.852 23.9222 18.867C23.8779 18.8821 23.8373 18.9062 23.8028 18.9378C23.7684 18.9694 23.7408 19.0079 23.722 19.0507C23.7032 19.0935 23.6935 19.1398 23.6935 19.1865C23.6935 19.2333 23.7032 19.2795 23.722 19.3224C23.7408 19.3652 23.7684 19.4036 23.8028 19.4352C23.8373 19.4668 23.8779 19.4909 23.9222 19.506C23.9665 19.5211 24.0134 19.5268 24.06 19.5228H25.465V20.2103H19.5125V19.5278H22.5C22.5898 19.5278 22.676 19.4921 22.7395 19.4286C22.8031 19.365 22.8388 19.2789 22.8388 19.189C22.8388 19.0992 22.8031 19.013 22.7395 18.9495C22.676 18.886 22.5898 18.8503 22.5 18.8503H19.5125V17.9003C19.5137 17.6178 19.4586 17.3379 19.3504 17.0769C19.2422 16.8159 19.0832 16.5791 18.8825 16.3803L18.3125 15.8078C18.1745 15.6711 18.0652 15.5083 17.991 15.3289C17.9167 15.1494 17.879 14.957 17.88 14.7628V13.3503C17.8812 12.4424 17.6992 11.5437 17.345 10.7078L17.7675 10.2878C17.8413 10.2144 17.8998 10.1271 17.9398 10.031C17.9797 9.9349 18.0003 9.83185 18.0003 9.72777C18.0003 9.6237 17.9797 9.52065 17.9398 9.42455C17.8998 9.32845 17.8413 9.24118 17.7675 9.16777L17.6025 9.00277C17.5351 8.93555 17.4856 8.85252 17.4585 8.76125C17.4314 8.66998 17.4276 8.57338 17.4475 8.48027L17.52 8.14527C17.5472 8.01647 17.5418 7.88291 17.5042 7.75673C17.4667 7.63055 17.3982 7.51575 17.305 7.42277L17.075 7.19277C16.982 7.09958 16.8672 7.03109 16.741 6.99354C16.6149 6.95599 16.4813 6.95057 16.3525 6.97777L16.0175 7.05027C15.9254 7.06957 15.8299 7.06574 15.7396 7.03913C15.6493 7.01252 15.567 6.96395 15.5 6.89777L15.335 6.73277C15.2616 6.659 15.1743 6.60046 15.0782 6.56051C14.9821 6.52056 14.8791 6.5 14.775 6.5C14.6709 6.5 14.5679 6.52056 14.4718 6.56051C14.3757 6.60046 14.2884 6.659 14.215 6.73277L13.81 7.14027C12.9838 6.78243 12.0928 6.59861 11.1925 6.60027V6.60027C10.3134 6.59962 9.44288 6.77228 8.63062 7.10837C7.81835 7.44447 7.08031 7.93741 6.45872 8.559C5.83714 9.18058 5.3442 9.91862 5.0081 10.7309C4.672 11.5432 4.49934 12.4137 4.5 13.2928V18.7378C4.50021 19.0646 4.57483 19.3871 4.7182 19.6807C4.86158 19.9744 5.06995 20.2316 5.3275 20.4328C5.26848 20.4745 5.21326 20.5213 5.1625 20.5728C4.5475 21.1953 4.545 22.4153 4.545 22.5503V24.7278C4.545 24.8555 4.57016 24.9819 4.61903 25.0999C4.6679 25.2179 4.73954 25.3251 4.82984 25.4154C4.92015 25.5057 5.02735 25.5774 5.14534 25.6262C5.26333 25.6751 5.38979 25.7003 5.5175 25.7003C5.64521 25.7003 5.77167 25.6751 5.88966 25.6262C6.00765 25.5774 6.11486 25.5057 6.20516 25.4154C6.29547 25.3251 6.3671 25.2179 6.41597 25.0999C6.46485 24.9819 6.49 24.8555 6.49 24.7278V22.6003C6.49 21.6003 6.74 21.1003 6.86 20.8953H12.16C12.2495 20.8953 12.3354 20.8597 12.3987 20.7964C12.4619 20.7331 12.4975 20.6473 12.4975 20.5578C12.4975 20.4683 12.4619 20.3824 12.3987 20.3191C12.3354 20.2558 12.2495 20.2203 12.16 20.2203H6.66C6.26835 20.2196 5.89292 20.0637 5.61598 19.7868C5.33904 19.5099 5.18316 19.1344 5.1825 18.7428V13.2928C5.1825 11.6986 5.81511 10.1695 6.94145 9.04129C8.06779 7.91308 9.59579 7.27792 11.19 7.27527V7.27527C12.7924 7.28585 14.3253 7.9312 15.4528 9.06991C16.5802 10.2086 17.2103 11.7478 17.205 13.3503V14.7603C17.2045 15.0433 17.2602 15.3235 17.3688 15.5849C17.4773 15.8462 17.6366 16.0834 17.8375 16.2828L18.4075 16.8503C18.5448 16.9874 18.6537 17.1504 18.7279 17.3297C18.8021 17.509 18.8402 17.7012 18.84 17.8953V20.2103H13.73C13.6405 20.2103 13.5546 20.2458 13.4914 20.3091C13.4281 20.3724 13.3925 20.4583 13.3925 20.5478C13.3925 20.6373 13.4281 20.7231 13.4914 20.7864C13.5546 20.8497 13.6405 20.8853 13.73 20.8853H27.1625C27.2512 20.8853 27.3362 20.8504 27.3994 20.7882C27.4626 20.726 27.4987 20.6414 27.5 20.5528V17.8303C27.5003 17.7859 27.4918 17.7418 27.475 17.7007C27.4581 17.6596 27.4333 17.6223 27.4019 17.5909C27.3705 17.5595 27.3331 17.5346 27.292 17.5178C27.251 17.5009 27.2069 17.4924 27.1625 17.4928V17.4928ZM5.815 22.6003V24.7328C5.815 24.8117 5.78366 24.8873 5.72787 24.9431C5.67207 24.9989 5.5964 25.0303 5.5175 25.0303C5.4386 25.0303 5.36293 24.9989 5.30714 24.9431C5.25135 24.8873 5.22 24.8117 5.22 24.7328V22.5453C5.22 22.2503 5.2875 21.4028 5.6425 21.0453C5.77321 20.9352 5.93912 20.8757 6.11 20.8778C5.89696 21.4263 5.79663 22.0121 5.815 22.6003ZM14.4425 7.45527L14.6925 7.20527C14.7148 7.18418 14.7443 7.17242 14.775 7.17242C14.8057 7.17242 14.8352 7.18418 14.8575 7.20527L15.0225 7.37277C15.1696 7.51926 15.3508 7.62681 15.5498 7.68574C15.7488 7.74466 15.9594 7.75309 16.1625 7.71027L16.5 7.64027C16.5192 7.63605 16.5392 7.63682 16.558 7.64251C16.5768 7.6482 16.5939 7.65862 16.6075 7.67277L16.835 7.90027C16.849 7.91406 16.8593 7.93111 16.8649 7.94989C16.8706 7.96867 16.8715 7.98857 16.8675 8.00777L16.79 8.35027C16.7476 8.553 16.7563 8.76307 16.8152 8.96162C16.8741 9.16017 16.9814 9.34097 17.1275 9.48777L17.2925 9.65277C17.3136 9.67506 17.3254 9.70458 17.3254 9.73527C17.3254 9.76596 17.3136 9.79549 17.2925 9.81777L17.0425 10.0678C16.435 8.9726 15.5347 8.06804 14.4425 7.45527V7.45527ZM26.825 20.2053H26.1375V18.1678H26.825V20.2053Z" fill="#5E5E5E"/>
</svg>
