<svg width="40" height="40" viewBox="0 0 40 40" fill="none" xmlns="http://www.w3.org/2000/svg">
<path d="M14.7938 11.9062C14.5294 11.6398 14.2149 11.4283 13.8685 11.284C13.522 11.1397 13.1504 11.0654 12.775 11.0654C12.3997 11.0654 12.0281 11.1397 11.6816 11.284C11.3351 11.4283 11.0206 11.6398 10.7563 11.9062C10.2181 12.4452 9.91588 13.1758 9.91588 13.9375C9.91588 14.6991 10.2181 15.4297 10.7563 15.9687C11.0213 16.234 11.3359 16.4445 11.6823 16.5881C12.0287 16.7317 12.4 16.8057 12.775 16.8057C13.15 16.8057 13.5213 16.7317 13.8677 16.5881C14.2141 16.4445 14.5288 16.234 14.7938 15.9687C15.3304 15.4289 15.6316 14.6986 15.6316 13.9375C15.6316 13.1763 15.3304 12.4461 14.7938 11.9062V11.9062ZM14.1281 15.2906C13.9507 15.4688 13.7399 15.6102 13.5077 15.7067C13.2755 15.8032 13.0265 15.8528 12.775 15.8528C12.5236 15.8528 12.2746 15.8032 12.0424 15.7067C11.8102 15.6102 11.5993 15.4688 11.4219 15.2906C11.0629 14.9299 10.8614 14.4417 10.8614 13.9328C10.8614 13.4239 11.0629 12.9357 11.4219 12.575C11.781 12.2166 12.2677 12.0153 12.775 12.0153C13.2824 12.0153 13.769 12.2166 14.1281 12.575C14.4856 12.9365 14.686 13.4244 14.686 13.9328C14.686 14.4412 14.4856 14.9291 14.1281 15.2906V15.2906ZM14.7938 11.9062C14.5294 11.6398 14.2149 11.4283 13.8685 11.284C13.522 11.1397 13.1504 11.0654 12.775 11.0654C12.3997 11.0654 12.0281 11.1397 11.6816 11.284C11.3351 11.4283 11.0206 11.6398 10.7563 11.9062C10.2181 12.4452 9.91588 13.1758 9.91588 13.9375C9.91588 14.6991 10.2181 15.4297 10.7563 15.9687C11.0213 16.234 11.3359 16.4445 11.6823 16.5881C12.0287 16.7317 12.4 16.8057 12.775 16.8057C13.15 16.8057 13.5213 16.7317 13.8677 16.5881C14.2141 16.4445 14.5288 16.234 14.7938 15.9687C15.3304 15.4289 15.6316 14.6986 15.6316 13.9375C15.6316 13.1763 15.3304 12.4461 14.7938 11.9062V11.9062ZM14.1281 15.2906C13.9507 15.4688 13.7399 15.6102 13.5077 15.7067C13.2755 15.8032 13.0265 15.8528 12.775 15.8528C12.5236 15.8528 12.2746 15.8032 12.0424 15.7067C11.8102 15.6102 11.5993 15.4688 11.4219 15.2906C11.0629 14.9299 10.8614 14.4417 10.8614 13.9328C10.8614 13.4239 11.0629 12.9357 11.4219 12.575C11.781 12.2166 12.2677 12.0153 12.775 12.0153C13.2824 12.0153 13.769 12.2166 14.1281 12.575C14.4856 12.9365 14.686 13.4244 14.686 13.9328C14.686 14.4412 14.4856 14.9291 14.1281 15.2906V15.2906ZM17.7438 8.94372C17.0922 8.28903 16.3176 7.76952 15.4647 7.41503C14.6117 7.06054 13.6971 6.87805 12.7735 6.87805C11.8498 6.87805 10.9352 7.06054 10.0822 7.41503C9.22926 7.76952 8.45474 8.28903 7.80314 8.94372C6.48677 10.2711 5.74817 12.0649 5.74817 13.9343C5.74817 15.8038 6.48677 17.5976 7.80314 18.925C8.45516 19.5789 9.22982 20.0978 10.0827 20.4518C10.9356 20.8058 11.85 20.988 12.7735 20.988C13.6969 20.988 14.6113 20.8058 15.4642 20.4518C16.3171 20.0978 17.0917 19.5789 17.7438 18.925C19.0601 17.5976 19.7987 15.8038 19.7987 13.9343C19.7987 12.0649 19.0601 10.2711 17.7438 8.94372V8.94372ZM17.0781 18.2531C16.514 18.8198 15.8434 19.2695 15.1049 19.5764C14.3665 19.8832 13.5747 20.0412 12.775 20.0412C11.9753 20.0412 11.1836 19.8832 10.4451 19.5764C9.70664 19.2695 9.03607 18.8198 8.47189 18.2531C7.33129 17.1045 6.69117 15.5515 6.69117 13.9328C6.69117 12.3141 7.33129 10.761 8.47189 9.61247C9.03607 9.04574 9.70664 8.59604 10.4451 8.28919C11.1836 7.98234 11.9753 7.82438 12.775 7.82438C13.5747 7.82438 14.3665 7.98234 15.1049 8.28919C15.8434 8.59604 16.514 9.04574 17.0781 9.61247C18.218 10.7614 18.8576 12.3143 18.8576 13.9328C18.8576 15.5512 18.218 17.1041 17.0781 18.2531V18.2531ZM12.775 11.0656C12.3996 11.0649 12.0278 11.1388 11.6812 11.2831C11.3346 11.4275 11.0202 11.6393 10.7563 11.9062C10.2181 12.4452 9.91588 13.1758 9.91588 13.9375C9.91588 14.6991 10.2181 15.4297 10.7563 15.9687C11.0213 16.234 11.3359 16.4445 11.6823 16.5881C12.0287 16.7317 12.4 16.8057 12.775 16.8057C13.15 16.8057 13.5213 16.7317 13.8677 16.5881C14.2141 16.4445 14.5288 16.234 14.7938 15.9687C15.3304 15.4289 15.6316 14.6986 15.6316 13.9375C15.6316 13.1763 15.3304 12.4461 14.7938 11.9062C14.5298 11.6393 14.2154 11.4275 13.8688 11.2831C13.5223 11.1388 13.1504 11.0649 12.775 11.0656V11.0656ZM14.1281 15.2906C13.9507 15.4688 13.7399 15.6102 13.5077 15.7067C13.2755 15.8032 13.0265 15.8528 12.775 15.8528C12.5236 15.8528 12.2746 15.8032 12.0424 15.7067C11.8102 15.6102 11.5993 15.4688 11.4219 15.2906C11.0629 14.9299 10.8614 14.4417 10.8614 13.9328C10.8614 13.4239 11.0629 12.9357 11.4219 12.575C11.781 12.2166 12.2677 12.0153 12.775 12.0153C13.2824 12.0153 13.769 12.2166 14.1281 12.575C14.4856 12.9365 14.686 13.4244 14.686 13.9328C14.686 14.4412 14.4856 14.9291 14.1281 15.2906V15.2906Z" fill="#5E5E5E"/>
<path d="M33.75 32.6437L32.1438 31.0343L32.1719 30.9593C32.4273 30.2355 32.4748 29.4545 32.3091 28.705C32.1434 27.9556 31.7711 27.2674 31.2344 26.7187L23.9813 19.4375L24.4906 18.925C24.5775 18.8347 24.6261 18.7143 24.6261 18.589C24.6261 18.4637 24.5775 18.3433 24.4906 18.2531L23.125 16.8968L27.95 12.0625L28.4594 12.575C28.5029 12.6196 28.5549 12.655 28.6123 12.6792C28.6698 12.7033 28.7315 12.7157 28.7938 12.7156C28.8556 12.7156 28.9168 12.7032 28.9737 12.6791C29.0306 12.6549 29.0821 12.6195 29.125 12.575L30.8125 10.8843C30.9009 10.7948 30.9504 10.6741 30.9504 10.5484C30.9504 10.4226 30.9009 10.3019 30.8125 10.2125L26.5625 5.95308C26.4801 5.86853 26.368 5.81924 26.25 5.81558C26.1879 5.81487 26.1263 5.82668 26.0688 5.8503C26.0114 5.87392 25.9593 5.90888 25.9156 5.95308L24.2188 7.64683C24.1747 7.69067 24.1398 7.74278 24.116 7.80016C24.0921 7.85754 24.0798 7.91907 24.0798 7.9812C24.0798 8.04334 24.0921 8.10486 24.116 8.16224C24.1398 8.21962 24.1747 8.27173 24.2188 8.31558L24.7531 8.85308L21.9188 11.7L21.875 11.4906C21.3778 9.60393 20.306 7.91866 18.8082 6.66835C17.3104 5.41804 15.4608 4.6646 13.5156 4.51245H13.4219C13.3092 4.52428 13.2045 4.57601 13.1266 4.65828C13.0487 4.74056 13.0027 4.84797 12.9971 4.96113C12.9914 5.07429 13.0264 5.18575 13.0957 5.27539C13.165 5.36502 13.2641 5.42694 13.375 5.44995H13.4219C15.5588 5.61415 17.5549 6.57893 19.0112 8.15137C20.4674 9.72381 21.2765 11.788 21.2765 13.9312C21.2765 16.0744 20.4674 18.1386 19.0112 19.711C17.5549 21.2835 15.5588 22.2483 13.4219 22.4125H13.3844C13.2734 22.4324 13.1732 22.4912 13.1016 22.5783C13.0301 22.6654 12.9918 22.7751 12.9937 22.8878C12.9955 23.0006 13.0374 23.1089 13.1119 23.1936C13.1863 23.2783 13.2885 23.3337 13.4 23.35H13.4375H13.5C13.8525 23.3259 14.2032 23.2799 14.55 23.2125H14.6125L17.0938 25.7125C17.1374 25.7566 17.1895 25.7916 17.247 25.8152C17.3044 25.8389 17.366 25.8507 17.4281 25.85C17.4898 25.8506 17.5509 25.8387 17.6078 25.8151C17.6648 25.7915 17.7163 25.7566 17.7594 25.7125L18.2688 25.2L25.5094 32.4687C26.0534 33.0067 26.7383 33.3801 27.4852 33.5459C28.2321 33.7118 29.0107 33.6633 29.7313 33.4062L29.8063 33.3812L31.4094 34.9937C31.5634 35.1539 31.748 35.2818 31.9521 35.3697C32.1562 35.4576 32.3759 35.5039 32.5981 35.5058C32.8204 35.5077 33.0408 35.4651 33.2464 35.3807C33.452 35.2962 33.6387 35.1715 33.7954 35.014C33.9522 34.8564 34.0759 34.6691 34.1592 34.463C34.2426 34.257 34.284 34.0363 34.2809 33.8141C34.2778 33.5918 34.2304 33.3724 34.1414 33.1688C34.0524 32.9651 33.9236 32.7813 33.7625 32.6281L33.75 32.6437ZM26.25 6.9562L29.8125 10.5468L28.7938 11.5625L25.2188 7.9812L26.25 6.9562ZM22.0313 15.7062C22.2042 14.7842 22.24 13.8418 22.1375 12.9093V12.85L25.4219 9.52495L27.2969 11.4L22.4688 16.2281L22.0063 15.7625L22.0313 15.7062ZM17.4125 24.6875L15.6594 22.9312L15.8469 22.8656C17.195 22.3978 18.4202 21.6319 19.4313 20.625C20.4433 19.6118 21.2098 18.3803 21.6719 17.025L21.7344 16.8343L23.4875 18.5968L17.4125 24.6875ZM28.3719 32.7062C27.9652 32.7068 27.5625 32.6267 27.187 32.4706C26.8116 32.3145 26.4708 32.0855 26.1844 31.7968L18.9219 24.5156L23.2969 20.1062L30.5688 27.3906C31.1517 27.9762 31.479 28.7689 31.479 29.5953C31.479 30.4216 31.1517 31.2143 30.5688 31.8C30.2811 32.0895 29.9387 32.319 29.5616 32.4751C29.1844 32.6312 28.78 32.7108 28.3719 32.7093V32.7062ZM33.0969 34.3343C33.0303 34.4018 32.951 34.4554 32.8636 34.4919C32.7761 34.5285 32.6823 34.5473 32.5875 34.5473C32.4927 34.5473 32.3989 34.5285 32.3115 34.4919C32.224 34.4554 32.1447 34.4018 32.0781 34.3343L30.6813 32.9343L30.7938 32.8468C30.9551 32.7324 31.1076 32.606 31.25 32.4687C31.3866 32.3312 31.5129 32.1839 31.6281 32.0281L31.7156 31.9125L33.1125 33.3156C33.2454 33.4535 33.3183 33.6383 33.3154 33.8297C33.3124 34.0212 33.2339 34.2037 33.0969 34.3374V34.3343Z" fill="#5E5E5E"/>
</svg>
