<svg width="32" height="32" viewBox="0 0 32 32" fill="none" xmlns="http://www.w3.org/2000/svg">
<path d="M26.35 15.25H26.335C26.2631 13.1747 25.5655 11.1696 24.3337 9.49789C23.1019 7.82616 21.3934 6.56591 19.4325 5.88253C19.3914 5.6113 19.2546 5.36371 19.0469 5.18446C18.8392 5.00521 18.5743 4.9061 18.3 4.90503H13.7C13.4257 4.9061 13.1608 5.00521 12.9531 5.18446C12.7454 5.36371 12.6086 5.6113 12.5675 5.88253C10.6066 6.56591 8.89815 7.82616 7.66632 9.49789C6.4345 11.1696 5.73687 13.1747 5.665 15.25H5.65C5.345 15.25 5.05249 15.3712 4.83683 15.5869C4.62116 15.8025 4.5 16.095 4.5 16.4V17.1675C4.5 17.4725 4.62116 17.765 4.83683 17.9807C5.05249 18.1964 5.345 18.3175 5.65 18.3175H26.35C26.655 18.3175 26.9475 18.1964 27.1632 17.9807C27.3788 17.765 27.5 17.4725 27.5 17.1675V16.405C27.5007 16.2536 27.4714 16.1035 27.4139 15.9634C27.3564 15.8233 27.2718 15.6959 27.1649 15.5886C27.0581 15.4813 26.9311 15.3961 26.7912 15.338C26.6514 15.2799 26.5014 15.25 26.35 15.25V15.25ZM12.55 6.70503V13.34C12.5578 13.4365 12.6016 13.5264 12.6727 13.592C12.7438 13.6576 12.837 13.694 12.9338 13.694C13.0305 13.694 13.1237 13.6576 13.1948 13.592C13.2659 13.5264 13.3097 13.4365 13.3175 13.34V6.05503C13.3175 5.95358 13.3578 5.85629 13.4295 5.78456C13.5013 5.71283 13.5986 5.67253 13.7 5.67253H15.6175V14.105C15.6175 14.1553 15.6274 14.205 15.6466 14.2514C15.6658 14.2978 15.694 14.34 15.7295 14.3755C15.765 14.411 15.8072 14.4392 15.8536 14.4584C15.9 14.4776 15.9498 14.4875 16 14.4875C16.0502 14.4875 16.1 14.4776 16.1464 14.4584C16.1928 14.4392 16.2349 14.411 16.2705 14.3755C16.306 14.34 16.3342 14.2978 16.3534 14.2514C16.3726 14.205 16.3825 14.1553 16.3825 14.105V5.67253H18.3C18.3502 5.67253 18.4 5.68242 18.4464 5.70165C18.4928 5.72087 18.535 5.74904 18.5705 5.78456C18.606 5.82008 18.6342 5.86225 18.6534 5.90865C18.6726 5.95506 18.6825 6.0048 18.6825 6.05503V13.34C18.6903 13.4365 18.7341 13.5264 18.8052 13.592C18.8763 13.6576 18.9695 13.694 19.0662 13.694C19.163 13.694 19.2562 13.6576 19.3273 13.592C19.3984 13.5264 19.4422 13.4365 19.45 13.34V6.70503C21.1945 7.37362 22.7043 8.53986 23.7918 10.059C24.8794 11.578 25.4968 13.3831 25.5675 15.25H6.4325C6.50319 13.3831 7.12063 11.578 8.20817 10.059C9.29572 8.53986 10.8055 7.37362 12.55 6.70503V6.70503ZM26.7325 17.1725C26.7328 17.2229 26.7232 17.2727 26.7041 17.3193C26.685 17.3659 26.6568 17.4082 26.6212 17.4437C26.5856 17.4793 26.5433 17.5075 26.4968 17.5266C26.4502 17.5457 26.4003 17.5554 26.35 17.555H5.65C5.59968 17.5554 5.54979 17.5457 5.50323 17.5266C5.45667 17.5075 5.41438 17.4793 5.37879 17.4437C5.34321 17.4082 5.31504 17.3659 5.29594 17.3193C5.27683 17.2727 5.26717 17.2229 5.2675 17.1725V16.405C5.2675 16.3036 5.3078 16.2063 5.37953 16.1346C5.45126 16.0628 5.54855 16.0225 5.65 16.0225H26.35C26.4514 16.0225 26.5487 16.0628 26.6205 16.1346C26.6922 16.2063 26.7325 16.3036 26.7325 16.405V17.1725Z" fill="#5E5E5E"/>
<path d="M14.0825 20.96H9.09995C8.79495 20.96 8.50245 21.0812 8.28678 21.2968C8.07111 21.5125 7.94995 21.805 7.94995 22.11V23.645C7.95774 23.7414 8.00155 23.8314 8.07265 23.897C8.14376 23.9626 8.23696 23.999 8.3337 23.999C8.43044 23.999 8.52364 23.9626 8.59475 23.897C8.66586 23.8314 8.70966 23.7414 8.71745 23.645V22.11C8.71745 22.0085 8.75775 21.9113 8.82948 21.8395C8.90122 21.7678 8.99851 21.7275 9.09995 21.7275H14.0825C14.1355 21.7318 14.1888 21.725 14.239 21.7077C14.2893 21.6903 14.3354 21.6628 14.3745 21.6267C14.4136 21.5907 14.4448 21.5469 14.4661 21.4982C14.4874 21.4495 14.4985 21.3969 14.4985 21.3437C14.4985 21.2906 14.4874 21.238 14.4661 21.1893C14.4448 21.1406 14.4136 21.0968 14.3745 21.0608C14.3354 21.0247 14.2893 20.9971 14.239 20.9798C14.1888 20.9625 14.1355 20.9557 14.0825 20.96Z" fill="#5E5E5E"/>
<path d="M27.1175 20.96H25.545C25.4559 20.5276 25.2206 20.1392 24.8786 19.8601C24.5366 19.5809 24.1089 19.4282 23.6675 19.4275H8.3325C8.08081 19.4275 7.83159 19.4771 7.59908 19.5735C7.36658 19.6699 7.15536 19.8112 6.97751 19.9893C6.79965 20.1674 6.65864 20.3788 6.56255 20.6114C6.46646 20.844 6.41717 21.0933 6.4175 21.345H4.8825C4.78105 21.345 4.68376 21.3853 4.61203 21.457C4.5403 21.5288 4.5 21.626 4.5 21.7275V24.795C4.50066 24.8962 4.54116 24.9931 4.61276 25.0647C4.68435 25.1363 4.78126 25.1768 4.8825 25.1775H6.5325C6.69785 25.7304 7.0368 26.2154 7.4992 26.5608C7.9616 26.9061 8.52288 27.0934 9.1 27.095H11.4C12.2626 27.0932 13.1101 26.8682 13.8601 26.442C14.6101 26.0157 15.237 25.4027 15.68 24.6625C15.7062 24.6204 15.7406 24.584 15.781 24.5553C15.8214 24.5266 15.8671 24.5062 15.9155 24.4952C15.9638 24.4843 16.0139 24.4831 16.0627 24.4916C16.1116 24.5002 16.1582 24.5183 16.2 24.545C16.2476 24.5755 16.2885 24.6155 16.32 24.6625C16.763 25.4027 17.3899 26.0157 18.1399 26.442C18.8899 26.8682 19.7374 27.0932 20.6 27.095H22.9C23.5446 27.0938 24.1672 26.8609 24.6542 26.4386C25.1412 26.0163 25.4601 25.4329 25.5525 24.795H27.1175C27.2192 24.7943 27.3165 24.7535 27.3881 24.6813C27.4598 24.6092 27.5 24.5117 27.5 24.41V21.345C27.5 21.2433 27.4598 21.1458 27.3881 21.0736C27.3165 21.0015 27.2192 20.9606 27.1175 20.96V20.96ZM6.4175 24.41H5.2675V23.25H6.4175V24.41ZM6.4175 22.495H5.2675V22.11H6.4175V22.495ZM24.8175 24.41C24.8168 24.9183 24.6146 25.4057 24.2551 25.7651C23.8957 26.1246 23.4083 26.3268 22.9 26.3275H20.6C19.8704 26.3243 19.1538 26.1334 18.5194 25.773C17.8849 25.4127 17.3539 24.8951 16.9775 24.27C16.8757 24.1018 16.7323 23.9627 16.5611 23.8662C16.3898 23.7696 16.1966 23.7189 16 23.7189C15.8034 23.7189 15.6102 23.7696 15.4389 23.8662C15.2677 23.9627 15.1243 24.1018 15.0225 24.27C14.6461 24.8951 14.1151 25.4127 13.4806 25.773C12.8462 26.1334 12.1296 26.3243 11.4 26.3275H9.1C8.59165 26.3268 8.10431 26.1246 7.74485 25.7651C7.3854 25.4057 7.18316 24.9183 7.1825 24.41V21.345C7.1825 21.04 7.30366 20.7475 7.51933 20.5318C7.73499 20.3162 8.0275 20.195 8.3325 20.195H23.6675C23.9725 20.195 24.265 20.3162 24.4807 20.5318C24.6963 20.7475 24.8175 21.04 24.8175 21.345V24.41ZM26.7325 24.0275H25.5825V22.8775H26.7325V24.0275ZM26.7325 22.11H25.5825V21.7275H26.7325V22.11Z" fill="#5E5E5E"/>
<path d="M16.3825 20.96H15.6175C15.5645 20.9557 15.5112 20.9625 15.461 20.9798C15.4107 20.9971 15.3646 21.0247 15.3255 21.0608C15.2864 21.0968 15.2552 21.1406 15.2339 21.1893C15.2126 21.238 15.2015 21.2906 15.2015 21.3437C15.2015 21.3969 15.2126 21.4495 15.2339 21.4982C15.2552 21.5469 15.2864 21.5907 15.3255 21.6267C15.3646 21.6628 15.4107 21.6903 15.461 21.7077C15.5112 21.725 15.5645 21.7318 15.6175 21.7275H16.3825C16.4355 21.7318 16.4888 21.725 16.5391 21.7077C16.5894 21.6903 16.6355 21.6628 16.6746 21.6267C16.7137 21.5907 16.7449 21.5469 16.7662 21.4982C16.7875 21.4495 16.7985 21.3969 16.7985 21.3437C16.7985 21.2906 16.7875 21.238 16.7662 21.1893C16.7449 21.1406 16.7137 21.0968 16.6746 21.0608C16.6355 21.0247 16.5894 20.9971 16.5391 20.9798C16.4888 20.9625 16.4355 20.9557 16.3825 20.96V20.96Z" fill="#5E5E5E"/>
</svg>
