<svg width="32" height="32" viewBox="0 0 32 32" fill="none" xmlns="http://www.w3.org/2000/svg">
<path d="M5.61502 27.535C5.46334 27.5343 5.31328 27.5038 5.1734 27.4451C5.03352 27.3865 4.90656 27.3009 4.79977 27.1931C4.69298 27.0854 4.60846 26.9577 4.55102 26.8173C4.49359 26.677 4.46436 26.5266 4.46502 26.375V24.95C4.46502 24.8505 4.50453 24.7551 4.57485 24.6848C4.64518 24.6145 4.74056 24.575 4.84002 24.575C4.93948 24.575 5.03486 24.6145 5.10518 24.6848C5.17551 24.7551 5.21502 24.8505 5.21502 24.95V26.375C5.21469 26.4287 5.22499 26.4819 5.24532 26.5317C5.26565 26.5814 5.29561 26.6266 5.33349 26.6647C5.37136 26.7028 5.41639 26.7331 5.466 26.7537C5.5156 26.7743 5.56879 26.785 5.62252 26.785H26.3925C26.4462 26.785 26.4994 26.7743 26.549 26.7537C26.5986 26.7331 26.6437 26.7028 26.6816 26.6647C26.7194 26.6266 26.7494 26.5814 26.7697 26.5317C26.7901 26.4819 26.8003 26.4287 26.8 26.375V17.9125C26.8007 17.8579 26.7904 17.8037 26.7698 17.7532C26.7491 17.7027 26.7185 17.6569 26.6798 17.6184C26.6411 17.5799 26.5951 17.5496 26.5444 17.5293C26.4938 17.5089 26.4396 17.499 26.385 17.5H5.61502C5.56129 17.5 5.5081 17.5106 5.4585 17.5312C5.40889 17.5519 5.36386 17.5821 5.32599 17.6202C5.28811 17.6583 5.25815 17.7035 5.23782 17.7533C5.21749 17.803 5.20719 17.8562 5.20752 17.91V23.59C5.20752 23.6894 5.16801 23.7848 5.09768 23.8551C5.02736 23.9255 4.93198 23.965 4.83252 23.965C4.73306 23.965 4.63768 23.9255 4.56735 23.8551C4.49703 23.7848 4.45752 23.6894 4.45752 23.59V17.9125C4.4579 17.6769 4.52981 17.4471 4.66374 17.2533C4.79768 17.0595 4.98731 16.911 5.20752 16.8275V7.52997C5.20685 7.16748 5.34987 6.81951 5.60525 6.56226C5.86062 6.30501 6.20754 6.15945 6.57002 6.15747H12.1825V5.46497C12.1825 5.19975 12.2879 4.9454 12.4754 4.75786C12.6629 4.57032 12.9173 4.46497 13.1825 4.46497H18.8275C19.0927 4.46497 19.3471 4.57032 19.5346 4.75786C19.7222 4.9454 19.8275 5.19975 19.8275 5.46497V6.15747H25.44C25.8025 6.15945 26.1494 6.30501 26.4048 6.56226C26.6602 6.81951 26.8032 7.16748 26.8025 7.52997V16.8275C27.0227 16.911 27.2124 17.0595 27.3463 17.2533C27.4802 17.4471 27.5521 17.6769 27.5525 17.9125V26.375C27.5532 26.5266 27.524 26.677 27.4665 26.8173C27.4091 26.9577 27.3246 27.0854 27.2178 27.1931C27.111 27.3009 26.984 27.3865 26.8441 27.4451C26.7043 27.5038 26.5542 27.5343 26.4025 27.535H5.61502ZM26.05 16.75V7.52997C26.0503 7.44822 26.0346 7.36721 26.0036 7.29155C25.9726 7.2159 25.927 7.14709 25.8695 7.08906C25.8119 7.03102 25.7435 6.98489 25.6681 6.95331C25.5927 6.92172 25.5118 6.90529 25.43 6.90497H6.57002C6.48827 6.90529 6.40739 6.92172 6.33199 6.95331C6.25659 6.98489 6.18815 7.03102 6.13058 7.08906C6.073 7.14709 6.02743 7.2159 5.99645 7.29155C5.96547 7.36721 5.94969 7.44822 5.95002 7.52997V16.75H10.0975V15.825C10.0998 15.1127 9.84097 14.4243 9.37002 13.89C9.09948 13.5846 8.90166 13.2218 8.79144 12.829C8.68122 12.4362 8.66145 12.0235 8.73363 11.6219C8.80581 11.2204 8.96806 10.8404 9.20818 10.5105C9.4483 10.1807 9.76006 9.90953 10.12 9.71747C10.2003 9.67512 10.2901 9.6543 10.3808 9.65703C10.4715 9.65975 10.5599 9.68594 10.6375 9.73302C10.715 9.78011 10.7791 9.8465 10.8233 9.9257C10.8676 10.0049 10.8906 10.0942 10.89 10.185V11.89C10.8897 11.8935 10.8901 11.897 10.8912 11.9003C10.8923 11.9036 10.894 11.9067 10.8964 11.9093C10.8988 11.9119 10.9016 11.9139 10.9048 11.9154C10.908 11.9168 10.9115 11.9175 10.915 11.9175H11.79C11.825 11.8975 11.8225 11.7625 11.82 11.54C11.8175 11.3175 11.82 10.8625 11.82 10.185C11.82 10.0455 11.8753 9.9117 11.9736 9.81285C12.072 9.71399 12.2056 9.65813 12.345 9.65747C12.4322 9.65533 12.5183 9.67602 12.595 9.71747C13.0282 9.94618 13.3905 10.2891 13.6426 10.7091C13.8946 11.1291 14.0269 11.6101 14.025 12.1C14.0251 12.7588 13.7851 13.3952 13.35 13.89C12.8781 14.4237 12.6191 15.1125 12.6225 15.825V16.75H18.1275V13.6525C17.9753 13.5945 17.8442 13.4918 17.7514 13.358C17.6586 13.2241 17.6084 13.0653 17.6075 12.9025C17.6075 12.85 17.575 12.8425 17.555 12.8425C17.1198 12.944 16.7247 13.1729 16.42 13.5C16.3644 13.5653 16.2944 13.6168 16.2153 13.6502C16.1363 13.6836 16.0506 13.6981 15.965 13.6925H15.75C15.678 13.6924 15.6068 13.6778 15.5406 13.6494C15.4744 13.6211 15.4147 13.5796 15.365 13.5275C15.3145 13.4759 15.2753 13.4143 15.25 13.3467C15.2246 13.2792 15.2135 13.207 15.2175 13.135C15.2925 11.2575 16.835 9.99497 18.2175 9.99497H20.4525C20.5885 9.99546 20.7203 10.0419 20.8265 10.1268C20.9327 10.2117 21.0071 10.33 21.0375 10.4625H21.205C21.2312 10.3223 21.3055 10.1957 21.415 10.1044C21.5245 10.0132 21.6624 9.96295 21.805 9.96247H22.88C22.9611 9.96279 23.0413 9.97909 23.1161 10.0104C23.1909 10.0418 23.2588 10.0875 23.3159 10.1451C23.373 10.2027 23.4182 10.2709 23.449 10.346C23.4797 10.421 23.4953 10.5014 23.495 10.5825V12.5825C23.495 12.746 23.4304 12.903 23.3152 13.0191C23.2 13.1352 23.0436 13.2011 22.88 13.2025H21.825C21.682 13.2026 21.5435 13.1526 21.4334 13.0613C21.3234 12.97 21.2488 12.843 21.2225 12.7025H21.05V12.75C21.0753 12.9229 21.0463 13.0995 20.9671 13.2553C20.8878 13.4111 20.7622 13.5385 20.6075 13.62V16.75H26.05ZM19.865 16.75V13.7025H18.865V16.75H19.865ZM11.865 16.75V15.825C11.8625 14.9288 12.188 14.0627 12.78 13.39C12.9541 13.1937 13.0866 12.9642 13.1698 12.7154C13.253 12.4666 13.285 12.2035 13.264 11.942C13.243 11.6805 13.1693 11.426 13.0475 11.1936C12.9257 10.9613 12.7582 10.756 12.555 10.59V11.89C12.5553 11.9914 12.5357 12.0919 12.4972 12.1858C12.4587 12.2796 12.402 12.365 12.3305 12.4369C12.259 12.5089 12.1741 12.5661 12.0805 12.6052C11.9869 12.6443 11.8865 12.6646 11.785 12.665H10.91C10.7056 12.6636 10.51 12.5813 10.3661 12.4361C10.2223 12.2908 10.1419 12.0944 10.1425 11.89V10.59C9.93979 10.7562 9.77262 10.9616 9.65096 11.1938C9.52931 11.426 9.45567 11.6804 9.43444 11.9417C9.41321 12.203 9.44482 12.4659 9.52739 12.7147C9.60995 12.9635 9.74179 13.1932 9.91502 13.39C10.5088 14.0618 10.8353 14.9283 10.8325 15.825V16.75H11.865ZM17.55 12.0875C17.7631 12.0888 17.9669 12.1745 18.1169 12.3259C18.2669 12.4773 18.3507 12.6819 18.35 12.895C18.35 12.925 18.35 12.9325 18.3825 12.94C18.4832 12.9569 18.5855 12.9627 18.6875 12.9575H20.25C20.2653 12.9575 20.2799 12.9514 20.2907 12.9406C20.3015 12.9298 20.3075 12.9152 20.3075 12.9V12.575C20.3082 12.4158 20.3715 12.2633 20.4838 12.1505C20.5961 12.0378 20.7484 11.9738 20.9075 11.9725C20.955 11.9725 21.0675 11.9725 21.34 11.9725C21.482 11.974 21.6191 12.0246 21.728 12.1158C21.837 12.2069 21.911 12.333 21.9375 12.4725H22.77V10.73H21.9375C21.9113 10.8701 21.8371 10.9967 21.7276 11.088C21.618 11.1793 21.4801 11.2295 21.3375 11.23V11.23C21.29 11.23 21.18 11.23 20.9225 11.23C20.7852 11.2296 20.6523 11.1815 20.5465 11.0939C20.4407 11.0064 20.3686 10.8848 20.3425 10.75H18.235C17.672 10.7879 17.1397 11.0203 16.7292 11.4075C16.3187 11.7947 16.0557 12.3126 15.985 12.8725C16.3643 12.4889 16.846 12.2224 17.3725 12.105C17.4309 12.0926 17.4904 12.0868 17.55 12.0875V12.0875ZM19.075 6.15747V5.46497C19.075 5.39866 19.0487 5.33507 19.0018 5.28819C18.9549 5.2413 18.8913 5.21497 18.825 5.21497H13.1725C13.1062 5.21497 13.0426 5.2413 12.9957 5.28819C12.9489 5.33507 12.9225 5.39866 12.9225 5.46497V6.15747H19.075Z" fill="#5E5E5E"/>
<path d="M13.2775 21.22C12.946 21.22 12.6281 21.0883 12.3936 20.8539C12.1592 20.6194 12.0275 20.3015 12.0275 19.97C12.0275 19.6385 12.1592 19.3205 12.3936 19.0861C12.6281 18.8517 12.946 18.72 13.2775 18.72H18.7225C19.054 18.72 19.372 18.8517 19.6064 19.0861C19.8408 19.3205 19.9725 19.6385 19.9725 19.97C19.9725 20.3015 19.8408 20.6194 19.6064 20.8539C19.372 21.0883 19.054 21.22 18.7225 21.22H13.2775ZM13.2775 19.47C13.1449 19.47 13.0177 19.5227 12.924 19.6164C12.8302 19.7102 12.7775 19.8374 12.7775 19.97C12.7775 20.1026 12.8302 20.2298 12.924 20.3235C13.0177 20.4173 13.1449 20.47 13.2775 20.47H18.7225C18.8551 20.47 18.9823 20.4173 19.0761 20.3235C19.1698 20.2298 19.2225 20.1026 19.2225 19.97C19.2225 19.8374 19.1698 19.7102 19.0761 19.6164C18.9823 19.5227 18.8551 19.47 18.7225 19.47H13.2775Z" fill="#5E5E5E"/>
<path d="M24.86 16.1375C24.8119 16.1376 24.7642 16.1279 24.7199 16.1092C24.6755 16.0905 24.6354 16.0631 24.6018 16.0286C24.5683 15.9941 24.542 15.9532 24.5245 15.9084C24.507 15.8635 24.4986 15.8157 24.5 15.7675V8.48004H7.51248V15.7675C7.51463 15.8196 7.5052 15.8715 7.48488 15.9195C7.46457 15.9675 7.43386 16.0103 7.39498 16.045C7.32555 16.1051 7.23675 16.1379 7.14498 16.1375V16.1375C7.09602 16.1389 7.04729 16.1303 7.00177 16.1122C6.95626 16.0941 6.91492 16.0669 6.88028 16.0322C6.84565 15.9976 6.81844 15.9563 6.80034 15.9108C6.78223 15.8652 6.7736 15.8165 6.77498 15.7675V8.42004C6.77432 8.2388 6.84551 8.06468 6.97296 7.93582C7.10042 7.80696 7.27374 7.73387 7.45498 7.73254H24.55C24.7312 7.73387 24.9046 7.80696 25.032 7.93582C25.1595 8.06468 25.2306 8.2388 25.23 8.42004V15.7675C25.2314 15.8165 25.2227 15.8652 25.2046 15.9108C25.1865 15.9563 25.1593 15.9976 25.1247 16.0322C25.09 16.0669 25.0487 16.0941 25.0032 16.1122C24.9577 16.1303 24.9089 16.1389 24.86 16.1375V16.1375Z" fill="#5E5E5E"/>
</svg>
