<svg width="32" height="32" viewBox="0 0 32 32" fill="none" xmlns="http://www.w3.org/2000/svg">
<path d="M17.4425 27.2075C17.3544 26.8754 17.3992 26.522 17.5675 26.2225C17.6867 25.9829 17.7806 25.7315 17.8475 25.4725C17.8583 25.4326 17.8634 25.3913 17.8625 25.35C17.7475 25.4925 17.645 25.6425 17.54 25.7975L17.5 25.855C17.4643 25.9153 17.4326 25.978 17.405 26.0425C17.3675 26.1225 17.3325 26.2 17.2875 26.28C17.1637 26.5215 16.9842 26.73 16.7638 26.8882C16.5434 27.0465 16.2884 27.1499 16.02 27.19C15.645 27.245 15.27 27.3225 14.8875 27.405L14.3625 27.5125L13.8275 27.62L13.9175 27.08C13.9452 26.7575 14.0881 26.4558 14.32 26.23C14.5638 26.0363 14.7561 25.7856 14.88 25.5C14.69 25.625 14.5125 25.75 14.3575 25.8725C14.2979 25.9226 14.2419 25.9769 14.19 26.035C14.1181 26.1155 14.0404 26.1907 13.9575 26.26C13.78 26.4211 13.5685 26.5402 13.3387 26.6085C13.1089 26.6769 12.8667 26.6928 12.63 26.655C12.235 26.595 11.8475 26.55 11.4375 26.5025L10.9 26.44L10.3625 26.375L10.6125 25.895C10.7305 25.5965 10.9587 25.3548 11.25 25.22C11.4202 25.1554 11.5795 25.0652 11.7225 24.9525C11.8185 24.8695 11.9079 24.7792 11.99 24.6825C11.82 24.7325 11.65 24.7925 11.49 24.8525L11.445 24.87C11.3715 24.8994 11.3005 24.9345 11.2325 24.975C11.138 25.0284 11.0403 25.076 10.94 25.1175C10.7144 25.2096 10.4736 25.2587 10.23 25.2625C9.9778 25.2622 9.72958 25.1995 9.50751 25.08C9.16751 24.9025 8.82001 24.745 8.45251 24.58C8.28001 24.5025 8.11751 24.43 7.95251 24.3525L7.48001 24.135L7.81501 23.75C7.91989 23.6184 8.04997 23.509 8.19764 23.4283C8.34532 23.3476 8.50761 23.2972 8.67501 23.28C8.82679 23.2743 8.97684 23.2457 9.12001 23.195C9.24967 23.1442 9.37507 23.0832 9.49501 23.0125L8.90001 23.035H8.72501C8.65751 23.035 8.58751 23.035 8.51501 23.055C8.40069 23.0712 8.28547 23.0804 8.17001 23.0825H8.12751C7.92081 23.0825 7.71623 23.0408 7.52596 22.9601C7.33569 22.8793 7.16362 22.7611 7.02001 22.6125C6.74751 22.3375 6.46501 22.08 6.16501 21.8075L5.75001 21.445L5.35001 21.0675L5.85001 20.8175C6.06322 20.6964 6.3025 20.6287 6.54751 20.62C6.59577 20.6163 6.64424 20.6163 6.69251 20.62C6.87272 20.6386 7.05385 20.6469 7.23501 20.645H7.66251C7.52001 20.6025 7.36501 20.5625 7.20751 20.52L6.86751 20.4275L6.67751 20.38C6.47115 20.3393 6.27164 20.2694 6.08501 20.1725C5.83684 20.0236 5.62841 19.8169 5.47751 19.57C5.25251 19.2075 5.05251 18.84 4.84001 18.455L4.59001 17.9925L4.32251 17.515L4.89501 17.4275C5.00826 17.4085 5.12272 17.3976 5.23751 17.395C5.39691 17.3938 5.5544 17.4298 5.69751 17.5C5.97204 17.6349 6.25614 17.7494 6.54751 17.8425C6.59608 17.8573 6.64675 17.864 6.69751 17.8625C6.55251 17.75 6.38501 17.63 6.18501 17.4975C6.12024 17.4574 6.05255 17.4223 5.98251 17.3925C5.88811 17.3504 5.79628 17.3029 5.70751 17.25C5.48254 17.1244 5.28909 16.9494 5.14182 16.738C4.99455 16.5266 4.89733 16.2845 4.85751 16.03C4.80001 15.655 4.72251 15.28 4.64001 14.8875L4.53251 14.36L4.43001 13.84L4.98001 13.915C5.27819 13.9263 5.5604 14.0527 5.76751 14.2675C5.86867 14.3959 5.98732 14.5095 6.12001 14.605C6.25323 14.689 6.39187 14.7642 6.53501 14.83C6.43251 14.685 6.31501 14.5275 6.17251 14.35C6.11996 14.2894 6.06404 14.2318 6.00501 14.1775C5.91554 14.096 5.83199 14.0083 5.75501 13.915C5.60568 13.7392 5.49528 13.5339 5.43108 13.3124C5.36687 13.0909 5.35032 12.8583 5.38251 12.63C5.44251 12.235 5.48751 11.8425 5.53501 11.4275C5.55501 11.2475 5.57501 11.0675 5.59501 10.8825L5.66001 10.3425L6.19751 10.62C6.45975 10.7236 6.67376 10.9216 6.79751 11.175C6.86883 11.3525 6.96205 11.5205 7.07501 11.675C7.16306 11.7938 7.26364 11.9027 7.37501 12C7.32001 11.81 7.25001 11.62 7.17751 11.4375C7.14709 11.3645 7.11202 11.2935 7.07251 11.225C7.01772 11.1291 6.96928 11.0297 6.92751 10.9275C6.81992 10.6977 6.76667 10.4463 6.77187 10.1927C6.77707 9.9391 6.84059 9.69009 6.95751 9.46497C7.13501 9.12497 7.29251 8.77497 7.45751 8.40497L7.68001 7.90497L7.90751 7.40497L8.29001 7.78997C8.54177 8.00359 8.70561 8.30279 8.75001 8.62997C8.76762 8.8355 8.8113 9.03796 8.88001 9.23247C8.91183 9.32508 8.95199 9.41462 9.00001 9.49997C9.00001 9.29247 9.00001 9.07747 8.98001 8.86497V8.71247C8.98001 8.63997 8.98001 8.56747 8.96251 8.48747C8.9434 8.34749 8.93587 8.20618 8.94001 8.06497C8.95011 7.66339 9.11596 7.28148 9.40251 6.99997C9.68251 6.71997 9.94251 6.43247 10.22 6.12747L10.5775 5.74997L10.9475 5.34747L11.1975 5.83497C11.3638 6.09984 11.4278 6.41628 11.3775 6.72497C11.2881 7.03421 11.2787 7.36107 11.35 7.67497C11.4025 7.50247 11.4525 7.32497 11.5 7.14997C11.5 7.14997 11.56 6.92997 11.5875 6.83497C11.615 6.73997 11.6225 6.70997 11.6375 6.64747C11.6779 6.48216 11.728 6.31938 11.7875 6.15997C11.9157 5.84702 12.1541 5.59181 12.4575 5.44247C12.8175 5.25247 13.1675 5.05247 13.5375 4.83997L14.0025 4.58997L14.43 4.33997L14.5525 4.81747C14.6022 4.96709 14.6213 5.12515 14.6089 5.2823C14.5964 5.43946 14.5526 5.59253 14.48 5.73247C14.3728 5.91902 14.2888 6.118 14.23 6.32497C14.1967 6.43887 14.1774 6.5564 14.1725 6.67497C14.315 6.49247 14.4425 6.30747 14.55 6.14247C14.5904 6.07749 14.6263 6.00983 14.6575 5.93997C14.7048 5.83478 14.7591 5.73289 14.82 5.63497C14.945 5.42615 15.1144 5.24736 15.3161 5.11127C15.5179 4.97519 15.7471 4.88512 15.9875 4.84747C16.3675 4.78997 16.7375 4.71247 17.1325 4.62997L17.6575 4.52247L18.1575 4.42747L18.1175 4.92747C18.1201 5.22609 18.0062 5.51397 17.8 5.72997C17.5118 5.95478 17.2876 6.25133 17.15 6.58997C17.304 6.48188 17.4509 6.36414 17.59 6.23747L17.74 6.10997C17.7925 6.06497 17.845 6.01497 17.9 5.96247C18.0083 5.85407 18.1245 5.7538 18.2475 5.66247C18.5785 5.42006 18.9919 5.3185 19.3975 5.37997C19.75 5.43497 20.1125 5.47497 20.46 5.51497C20.6325 5.53497 20.8 5.55247 20.96 5.57497C21.0116 5.58062 21.0626 5.59066 21.1125 5.60497L21.64 5.72247L21.4225 6.15747C21.2936 6.45771 21.0522 6.69552 20.75 6.81997C20.6009 6.87471 20.4616 6.95322 20.3375 7.05247C20.2284 7.14102 20.1272 7.23888 20.035 7.34497C20.24 7.27997 20.45 7.19997 20.6625 7.11997C20.74 7.08997 20.815 7.05247 20.895 7.01247C21.0236 6.94696 21.1564 6.89016 21.2925 6.84247C21.4624 6.78844 21.6393 6.75979 21.8175 6.75747C22.0551 6.75847 22.289 6.81588 22.5 6.92497C22.855 7.10997 23.2175 7.27247 23.6 7.44747C23.765 7.52247 23.9275 7.59497 24.1 7.67247L24.5675 7.88997L24.22 8.26997C24.1121 8.40511 23.9782 8.51723 23.8262 8.59968C23.6742 8.68213 23.5071 8.73323 23.335 8.74997C23.1528 8.76196 22.9734 8.8007 22.8025 8.86497C22.7051 8.90674 22.6107 8.95519 22.52 9.00997C22.68 9.00997 22.8425 9.00997 23.02 8.99247H23.0575L23.3375 8.97997C23.405 8.97997 23.4725 8.97997 23.5475 8.96497C23.6545 8.95134 23.7622 8.94383 23.87 8.94247H23.93C24.3216 8.94741 24.6958 9.10533 24.9725 9.38247C25.2625 9.67247 25.5575 9.94247 25.87 10.2275L26.27 10.5975L26.685 10.98L26.185 11.2175C25.9616 11.3315 25.7157 11.3947 25.465 11.4025C25.4051 11.406 25.345 11.406 25.285 11.4025C25.1458 11.3843 25.0054 11.376 24.865 11.3775C24.735 11.3775 24.615 11.3775 24.4675 11.3775H24.41L24.88 11.515L25.15 11.59L25.3675 11.6475C25.537 11.6877 25.7039 11.7378 25.8675 11.7975C26.1818 11.9249 26.4375 12.1646 26.585 12.47C26.7725 12.83 26.97 13.18 27.18 13.55C27.2775 13.72 27.3625 13.8725 27.4475 14.0275L27.6975 14.4825L27.1975 14.5825C27.0783 14.6076 26.9569 14.621 26.835 14.6225C26.6628 14.6231 26.4924 14.5873 26.335 14.5175C26.0116 14.3754 25.6772 14.26 25.335 14.1725C25.4734 14.2864 25.6225 14.3869 25.78 14.4725L25.9075 14.55C25.9675 14.585 26.0325 14.6175 26.1025 14.6525C26.214 14.7059 26.3218 14.7669 26.425 14.835C26.6243 14.9591 26.7944 15.1247 26.9239 15.3206C27.0533 15.5165 27.139 15.738 27.175 15.97C27.2325 16.355 27.31 16.735 27.3925 17.135C27.43 17.31 27.465 17.4875 27.5 17.665L27.605 18.1975L27.0475 18.1075C26.74 18.0895 26.451 17.9544 26.24 17.73C26.1319 17.5917 26.0028 17.471 25.8575 17.3725C25.7446 17.303 25.6258 17.2436 25.5025 17.195C25.6025 17.3375 25.7125 17.4875 25.835 17.645C25.8887 17.7093 25.9472 17.7695 26.01 17.825C26.0933 17.9027 26.171 17.9862 26.2425 18.075C26.4056 18.257 26.5263 18.4729 26.596 18.7073C26.6656 18.9416 26.6823 19.1884 26.645 19.43C26.5825 19.8175 26.54 20.2025 26.4925 20.61C26.4725 20.7875 26.4525 20.965 26.43 21.1475L26.3675 21.6825L25.8875 21.4325C25.5935 21.3188 25.3533 21.0982 25.215 20.815C25.1392 20.6371 25.0418 20.4691 24.925 20.315C24.85 20.2237 24.7662 20.14 24.675 20.065C24.7225 20.2275 24.78 20.405 24.855 20.605C24.882 20.6713 24.9138 20.7357 24.95 20.7975C25.0009 20.8775 25.0461 20.961 25.085 21.0475C25.2035 21.2864 25.2652 21.5495 25.2652 21.8162C25.2652 22.0829 25.2035 22.346 25.085 22.585C24.9075 22.9175 24.755 23.2625 24.585 23.6275C24.51 23.795 24.4375 23.9575 24.3625 24.1275L24.1425 24.605L23.725 24.2175C23.4806 24.0204 23.3176 23.7399 23.2675 23.43C23.2476 23.2201 23.2049 23.013 23.14 22.8125C23.0987 22.7026 23.045 22.5977 22.98 22.5C22.98 22.67 22.995 22.8525 23.0075 23.04C23.0075 23.14 23.0075 23.2375 23.025 23.335L23.04 23.54C23.0583 23.706 23.065 23.873 23.06 24.04C23.0444 24.3974 22.8944 24.7358 22.64 24.9875C22.3425 25.2925 22.04 25.625 21.775 25.9175L21.5725 26.1375L21.56 26.165C21.56 26.1925 21.535 26.22 21.5225 26.2425L21.3675 26.53L20.715 26.28L20.6925 26.03C20.6925 25.97 20.6925 25.9125 20.675 25.8525C20.655 25.6775 20.64 25.5175 20.635 25.3525C20.63 25.1875 20.635 24.9925 20.635 24.8175C20.635 24.6425 20.635 24.535 20.635 24.3975C20.59 24.5425 20.5475 24.695 20.5075 24.855C20.48 24.955 20.4525 25.0575 20.4225 25.1575C20.3925 25.2575 20.3925 25.2875 20.3775 25.3575C20.3526 25.4873 20.3184 25.6151 20.275 25.74C20.1469 26.1124 19.8776 26.4195 19.525 26.595C19.2275 26.745 18.93 26.915 18.645 27.08L18.2275 27.33L18.0525 27.42L17.5525 27.67L17.4425 27.2075ZM15.15 24.555C15.2308 24.5542 15.3106 24.5731 15.3825 24.61C15.4729 24.6595 15.549 24.7316 15.6033 24.8192C15.6576 24.9068 15.6884 25.007 15.6925 25.11C15.7034 25.2271 15.6958 25.3452 15.67 25.46C15.5792 25.8974 15.3547 26.2957 15.0275 26.6C15.3225 26.54 15.6125 26.4825 15.91 26.44C16.0665 26.4161 16.2146 26.3539 16.3411 26.2588C16.4677 26.1636 16.5686 26.0387 16.635 25.895C16.665 25.845 16.6875 25.79 16.715 25.7325C16.7594 25.6251 16.8138 25.5221 16.8775 25.425L16.915 25.37C17.0808 25.1121 17.2681 24.8687 17.475 24.6425C17.5399 24.5653 17.62 24.5024 17.7104 24.4577C17.8007 24.413 17.8993 24.3873 18 24.3825C18.0517 24.3826 18.103 24.3902 18.1525 24.405C18.2766 24.4539 18.3838 24.5378 18.4611 24.6465C18.5383 24.7553 18.5822 24.8842 18.5875 25.0175C18.6348 25.2341 18.6348 25.4583 18.5875 25.675C18.5247 25.9265 18.4411 26.1723 18.3375 26.41C18.625 26.245 18.9175 26.0775 19.215 25.9275C19.3045 25.8823 19.384 25.8196 19.4488 25.7432C19.5137 25.6668 19.5625 25.5781 19.5925 25.4825C19.6229 25.3936 19.6463 25.3025 19.6625 25.21C19.68 25.125 19.6975 25.0425 19.7225 24.96C19.7475 24.8775 19.775 24.7675 19.8025 24.67C19.875 24.3685 19.9694 24.0727 20.085 23.785C20.1212 23.6631 20.1933 23.555 20.2919 23.4748C20.3904 23.3945 20.5109 23.3458 20.6375 23.335V23.335C20.7714 23.3406 20.9007 23.3853 21.0095 23.4635C21.1183 23.5417 21.2019 23.6499 21.25 23.775C21.337 23.912 21.3894 24.0682 21.4025 24.23C21.4025 24.43 21.4025 24.6325 21.4025 24.83C21.4025 24.9525 21.4025 25.08 21.4025 25.2075C21.635 24.9575 21.8725 24.6925 22.1175 24.4575C22.2361 24.3344 22.3031 24.1708 22.305 24C22.3075 23.8664 22.3017 23.7328 22.2875 23.6C22.2875 23.525 22.275 23.4475 22.2725 23.3725C22.27 23.2975 22.2725 23.185 22.255 23.09C22.2327 22.8256 22.2244 22.5602 22.23 22.295C22.2454 22.1286 22.304 21.9692 22.4 21.8325C22.42 21.8 22.44 21.7675 22.455 21.7375L22.635 21.365L22.99 21.58C23.0214 21.5995 23.054 21.617 23.0875 21.6325C23.2381 21.6982 23.3734 21.7944 23.485 21.915C23.6471 22.1095 23.7717 22.3325 23.8525 22.5725C23.9051 22.7284 23.9461 22.888 23.975 23.05C24.1 22.77 24.225 22.49 24.375 22.2175C24.4444 22.0783 24.479 21.9245 24.476 21.7691C24.4729 21.6136 24.4323 21.4613 24.3575 21.325C24.3305 21.2652 24.3004 21.2067 24.2675 21.15C24.2081 21.0523 24.1579 20.9494 24.1175 20.8425C24.0075 20.5537 23.9165 20.2581 23.845 19.9575C23.805 19.7825 23.8075 19.27 24.1775 19.1725C24.2955 19.1413 24.4185 19.1343 24.5392 19.152C24.66 19.1696 24.7759 19.2114 24.88 19.275C25.1106 19.4265 25.3171 19.6119 25.4925 19.825C25.5879 19.9539 25.6716 20.0911 25.7425 20.235C25.78 19.9175 25.8175 19.6125 25.865 19.3025C25.8832 19.1667 25.8701 19.0285 25.8268 18.8985C25.7834 18.7686 25.711 18.6502 25.615 18.5525C25.5639 18.4921 25.5088 18.4353 25.45 18.3825C25.3609 18.3051 25.2774 18.2215 25.2 18.1325C24.9999 17.8783 24.8146 17.6129 24.645 17.3375C24.5425 17.1675 24.4475 16.7575 24.6825 16.5425C24.8264 16.421 25.0092 16.3554 25.1975 16.3575C25.2652 16.3561 25.3327 16.3654 25.3975 16.385C25.6825 16.4732 25.9561 16.5949 26.2125 16.7475C26.342 16.8185 26.4635 16.9032 26.575 17C26.5125 16.6925 26.455 16.3925 26.4075 16.085C26.3873 15.9552 26.3382 15.8316 26.2638 15.7234C26.1893 15.6152 26.0915 15.5252 25.9775 15.46C25.9021 15.4115 25.8236 15.368 25.7425 15.33C25.655 15.285 25.575 15.245 25.4925 15.1975L25.37 15.125C25.169 15.0143 24.9797 14.8837 24.805 14.735C24.61 14.5625 24.305 14.22 24.405 13.88C24.4556 13.7245 24.5572 13.5905 24.6932 13.4998C24.8293 13.4091 24.992 13.3669 25.155 13.38C25.251 13.3808 25.3466 13.3925 25.44 13.415C25.7672 13.4935 26.0881 13.5963 26.4 13.7225C26.2325 13.425 26.0625 13.12 25.9 12.81C25.8324 12.6683 25.7136 12.5575 25.5675 12.5C25.4357 12.4523 25.3014 12.4123 25.165 12.38L24.915 12.315L24.665 12.24C24.38 12.16 24.095 12.08 23.815 11.99C23.6125 11.9175 23.255 11.6325 23.3425 11.2925C23.4097 11.0967 23.541 10.9294 23.715 10.8175C23.853 10.708 24.0216 10.6442 24.1975 10.635H24.4225C24.5675 10.635 24.705 10.635 24.845 10.635C24.985 10.635 25.075 10.635 25.175 10.635C24.925 10.4025 24.675 10.1775 24.425 9.93497C24.355 9.86425 24.2717 9.80816 24.1799 9.76996C24.088 9.73177 23.9895 9.71222 23.89 9.71247H23.8575C23.7739 9.71357 23.6904 9.71941 23.6075 9.72997C23.5225 9.72997 23.435 9.74747 23.3575 9.74997H23.0525C22.8725 9.74997 22.695 9.76747 22.515 9.76747C22.335 9.76747 22.25 9.74997 22.1275 9.74997C21.9956 9.75148 21.8664 9.7125 21.7573 9.63829C21.6482 9.56409 21.5645 9.45822 21.5175 9.33497C21.4822 9.20203 21.4889 9.06139 21.5368 8.93244C21.5847 8.80349 21.6714 8.69257 21.785 8.61497C21.997 8.42476 22.2385 8.27024 22.5 8.15747C22.6608 8.09177 22.8285 8.04479 23 8.01747C22.71 7.88497 22.415 7.74747 22.1275 7.59997C22.023 7.54387 21.9061 7.51465 21.7875 7.51497C21.6872 7.51674 21.5878 7.5336 21.4925 7.56497C21.3935 7.59892 21.2974 7.64072 21.205 7.68997C21.1075 7.73747 21.01 7.78497 20.905 7.82497C20.6094 7.94734 20.3073 8.05333 20 8.14247C19.9429 8.15762 19.8841 8.16518 19.825 8.16497C19.7408 8.16243 19.6571 8.15155 19.575 8.13247C19.5454 8.12492 19.5153 8.11908 19.485 8.11497L19.0975 8.06747L19.1575 7.67997C19.1575 7.64997 19.1575 7.61247 19.1575 7.56997C19.1559 7.39981 19.2 7.23234 19.285 7.08497C19.4457 6.85306 19.6394 6.64588 19.86 6.46997C19.9707 6.37286 20.0924 6.28897 20.2225 6.21997C19.905 6.18497 19.585 6.14747 19.265 6.09747C19.2225 6.09509 19.18 6.09509 19.1375 6.09747C18.9656 6.09998 18.799 6.15784 18.6625 6.26247C18.5742 6.32992 18.4906 6.40343 18.4125 6.48247C18.345 6.54747 18.28 6.60747 18.2125 6.66747L18.0725 6.78747C17.894 6.95096 17.7025 7.09977 17.5 7.23247C17.3185 7.34965 17.1105 7.41929 16.895 7.43497C16.7922 7.43796 16.6909 7.40915 16.605 7.35247C16.185 7.08497 16.33 6.60247 16.3925 6.41247L16.4075 6.35747C16.5222 5.99683 16.726 5.67095 17 5.40997C16.6925 5.47247 16.395 5.52997 16.0875 5.57747C15.951 5.59968 15.8213 5.65263 15.7083 5.73232C15.5952 5.81201 15.5018 5.91636 15.435 6.03747C15.3937 6.10319 15.3569 6.17169 15.325 6.24247C15.2799 6.34536 15.2272 6.4448 15.1675 6.53997C14.9918 6.81215 14.7998 7.07346 14.5925 7.32247C14.5085 7.4144 14.4075 7.48912 14.295 7.54247C14.205 7.5913 14.1049 7.61868 14.0025 7.62247C13.9046 7.62296 13.8097 7.58838 13.735 7.52497C13.5497 7.36113 13.4328 7.13355 13.4075 6.88747C13.3887 6.62232 13.4157 6.35591 13.4875 6.09997C13.5359 5.93516 13.5978 5.77462 13.6725 5.61997C13.3825 5.78497 13.1 5.94497 12.805 6.09747C12.6608 6.16485 12.5468 6.28333 12.485 6.42997C12.4374 6.55812 12.3981 6.68923 12.3675 6.82247C12.35 6.89247 12.33 6.96247 12.3125 7.02997L12.225 7.33997C12.1475 7.61747 12.07 7.90497 11.975 8.18497C11.9289 8.31271 11.8489 8.42553 11.7437 8.51139C11.6385 8.59725 11.5119 8.65292 11.3775 8.67247C11.3443 8.67612 11.3107 8.67612 11.2775 8.67247C11.1254 8.61174 10.9894 8.51642 10.8805 8.39405C10.7716 8.27168 10.6927 8.12563 10.65 7.96747L10.635 7.91997C10.5372 7.57947 10.5193 7.22103 10.5825 6.87247C10.3725 7.10497 10.165 7.32747 9.94251 7.54997C9.86617 7.62079 9.80474 7.70614 9.76181 7.80101C9.71888 7.89588 9.69532 7.99837 9.69251 8.10247C9.69224 8.20779 9.69892 8.31302 9.71251 8.41747C9.71251 8.50497 9.73251 8.59497 9.73501 8.68747V8.84247C9.73501 9.16247 9.76251 9.49497 9.75251 9.82747C9.73779 10.037 9.6492 10.2346 9.50251 10.385C9.42583 10.4566 9.32497 10.4968 9.22001 10.4975H9.19501C8.95526 10.4778 8.7319 10.3679 8.57001 10.19C8.39862 9.9838 8.26261 9.75063 8.16751 9.49997C8.10487 9.33133 8.058 9.15725 8.02751 8.97997C7.90251 9.26247 7.77751 9.54497 7.62751 9.81997C7.56187 9.9489 7.52765 10.0915 7.52765 10.2362C7.52765 10.3809 7.56187 10.5235 7.62751 10.6525C7.65845 10.7252 7.6935 10.7962 7.73251 10.865C7.78895 10.9625 7.83905 11.0635 7.88251 11.1675C7.99212 11.4387 8.08398 11.7168 8.15751 12C8.18376 12.1452 8.17865 12.2944 8.14251 12.4375C8.14251 12.48 8.12751 12.51 8.12501 12.5375L8.08001 12.94L7.68501 12.8675H7.56501C7.38923 12.8658 7.21691 12.8184 7.06501 12.73C6.83588 12.5722 6.63335 12.3789 6.46501 12.1575C6.38382 12.0443 6.31192 11.9247 6.25001 11.8C6.21501 12.125 6.17501 12.44 6.12751 12.76C6.1102 12.8866 6.12118 13.0155 6.15965 13.1374C6.19812 13.2593 6.26313 13.3712 6.35001 13.465C6.40256 13.5287 6.45936 13.5889 6.52001 13.645C6.60463 13.7222 6.6832 13.8057 6.75501 13.895C6.95977 14.145 7.14928 14.4071 7.32251 14.68C7.39264 14.8037 7.43128 14.9428 7.43501 15.085C7.43501 15.1225 7.43501 15.145 7.43501 15.17L7.50251 15.5425L7.13001 15.61L7.03251 15.635C6.9306 15.6679 6.82457 15.6865 6.71751 15.69C6.65215 15.6904 6.58714 15.6803 6.52501 15.66C6.23456 15.5612 5.95745 15.4268 5.70001 15.26C5.60142 15.1967 5.50931 15.1238 5.42501 15.0425C5.48751 15.3425 5.54501 15.635 5.59001 15.9375C5.6133 16.0837 5.67071 16.2223 5.75758 16.3422C5.84445 16.4621 5.95833 16.5598 6.09001 16.6275C6.14987 16.6618 6.21164 16.6927 6.27501 16.72C6.38131 16.7676 6.48407 16.8227 6.58251 16.885C6.84392 17.0513 7.09443 17.2342 7.33251 17.4325C7.43473 17.5272 7.51348 17.6445 7.56251 17.775C7.57751 17.805 7.58751 17.83 7.60001 17.8525L7.78501 18.1825L7.45501 18.365L7.37501 18.415C7.25219 18.5037 7.11404 18.5689 6.96751 18.6075C6.87472 18.6277 6.77999 18.6378 6.68501 18.6375C6.55614 18.638 6.42795 18.6186 6.30501 18.58C6.07014 18.5083 5.83902 18.4248 5.61251 18.33C5.78001 18.635 5.94251 18.9225 6.11251 19.2025C6.1965 19.3431 6.31312 19.4614 6.45251 19.5475C6.57673 19.6054 6.70776 19.6474 6.84251 19.6725C6.92001 19.69 6.99251 19.7075 7.06501 19.73L7.35501 19.81H7.39501C7.64501 19.8775 7.89501 19.945 8.14501 20.0325C8.28703 20.0886 8.41136 20.1818 8.50501 20.3025L8.56751 20.3675L8.85501 20.6325L8.58001 20.9125L8.50001 21C8.42185 21.0883 8.33836 21.1718 8.25001 21.25C8.11874 21.353 7.95687 21.4093 7.79001 21.41H7.56001H7.24501C7.09501 21.41 6.96501 21.41 6.84501 21.41C7.09501 21.63 7.32751 21.855 7.56251 22.09C7.63869 22.1702 7.73066 22.2339 7.83262 22.2769C7.93459 22.3199 8.04435 22.3414 8.15501 22.34H8.18001C8.26366 22.3382 8.34714 22.3315 8.43001 22.32C8.53251 22.32 8.61501 22.2975 8.70001 22.295H8.86751C9.11751 22.2825 9.35501 22.27 9.61751 22.27H9.82751C9.98299 22.2824 10.1315 22.3397 10.255 22.435C10.279 22.4516 10.304 22.4666 10.33 22.48L10.6675 22.655L10.4675 23C10.4525 23.0275 10.44 23.06 10.425 23.095C10.3708 23.2519 10.2759 23.3917 10.15 23.5C9.91862 23.6689 9.66657 23.8075 9.40001 23.9125C9.27028 23.9562 9.13614 23.9855 9.00001 24C9.27751 24.1275 9.55751 24.25 9.83001 24.4025C9.94618 24.4645 10.0758 24.4972 10.2075 24.4975C10.358 24.4932 10.5063 24.461 10.645 24.4025C10.713 24.3746 10.779 24.342 10.8425 24.305C10.9455 24.2444 11.0534 24.1926 11.165 24.15L11.21 24.135C11.5164 24.0148 11.8326 23.9211 12.155 23.855C12.2112 23.8454 12.268 23.8404 12.325 23.84C12.4226 23.8364 12.5196 23.8574 12.607 23.9011C12.6943 23.9448 12.7693 24.0097 12.825 24.09C12.8944 24.2005 12.9284 24.3296 12.9226 24.46C12.9168 24.5904 12.8714 24.716 12.7925 24.82C12.6305 25.0826 12.429 25.3188 12.195 25.52C12.0723 25.6233 11.9381 25.7123 11.795 25.785C12.115 25.8225 12.42 25.86 12.7325 25.9075C12.7774 25.9111 12.8226 25.9111 12.8675 25.9075C13.0923 25.8978 13.3065 25.8093 13.4725 25.6575C13.5276 25.6102 13.5786 25.5583 13.625 25.5025C13.7076 25.4123 13.797 25.3288 13.8925 25.2525C14.1911 25.0333 14.5025 24.8321 14.825 24.65C14.9228 24.5896 15.0351 24.5568 15.15 24.555V24.555ZM16 17.8875H15.855C15.6077 17.867 15.3669 17.7979 15.1463 17.6843C14.9257 17.5706 14.7297 17.4146 14.5695 17.2251C14.4093 17.0357 14.288 16.8165 14.2126 16.5801C14.1372 16.3437 14.1091 16.0947 14.13 15.8475C14.1446 15.6157 14.2051 15.3891 14.3081 15.1809C14.4111 14.9727 14.5545 14.7871 14.73 14.635C15.0843 14.3176 15.5419 14.1399 16.0175 14.135H16.13C16.375 14.1513 16.6144 14.2158 16.8345 14.3247C17.0546 14.4337 17.251 14.585 17.4125 14.77C17.7293 15.1369 17.8926 15.6118 17.8684 16.096C17.8442 16.5802 17.6344 17.0365 17.2825 17.37C16.9359 17.6985 16.4776 17.8834 16 17.8875V17.8875ZM16.02 14.8875C15.7348 14.8943 15.4615 15.0035 15.25 15.195C15.1491 15.2807 15.0661 15.3856 15.006 15.5036C14.946 15.6216 14.9099 15.7504 14.9 15.8825C14.8849 16.0325 14.8996 16.184 14.9434 16.3283C14.9873 16.4726 15.0593 16.6068 15.1553 16.723C15.2513 16.8393 15.3695 16.9353 15.5029 17.0056C15.6363 17.0759 15.7823 17.119 15.9325 17.1325H16.0175C16.3035 17.1283 16.5774 17.0167 16.785 16.82C16.8934 16.7236 16.9802 16.6054 17.0397 16.4732C17.0991 16.3409 17.1299 16.1975 17.13 16.0525V16.025C17.142 15.7488 17.044 15.4791 16.8575 15.275C16.6675 15.0542 16.3979 14.9176 16.1075 14.895L16.02 14.8875Z" fill="#5E5E5E"/>
<path d="M16 20.1675C15.8934 20.1675 15.7859 20.1625 15.6775 20.1525C13.3725 19.9625 11.73 18 11.8625 15.615C11.896 15.1065 12.0301 14.6098 12.2572 14.1536C12.4842 13.6974 12.7996 13.2908 13.185 12.9575C13.9747 12.2546 14.9929 11.8628 16.05 11.855C16.1317 11.855 16.215 11.855 16.3 11.855C17.3941 11.9321 18.4133 12.439 19.135 13.265C19.4812 13.6513 19.7477 14.1021 19.9193 14.5916C20.0909 15.0811 20.1642 15.5996 20.135 16.1175C20.133 16.6652 20.0163 17.2065 19.7924 17.7064C19.5685 18.2063 19.2424 18.6538 18.835 19.02C18.0693 19.7475 17.0562 20.1576 16 20.1675ZM16.045 12.6125C15.1735 12.6182 14.3337 12.9407 13.6825 13.52C13.3718 13.7876 13.1171 14.114 12.9331 14.4804C12.749 14.8468 12.6392 15.246 12.61 15.655C12.5 17.6325 13.8525 19.25 15.75 19.4C15.8375 19.4 15.9225 19.4 16 19.4C16.8666 19.3934 17.6983 19.0584 18.3275 18.4625C18.6596 18.1654 18.9255 17.8017 19.1077 17.3951C19.2899 16.9885 19.3844 16.5481 19.385 16.1025V16.075C19.408 15.6543 19.3471 15.2332 19.2059 14.8362C19.0647 14.4392 18.846 14.0742 18.5625 13.7625C17.9718 13.0922 17.1412 12.681 16.25 12.6175C16.185 12.6125 16.1175 12.6125 16.05 12.6125H16.045Z" fill="#5E5E5E"/>
</svg>
