<svg width="32" height="32" viewBox="0 0 32 32" fill="none" xmlns="http://www.w3.org/2000/svg">
<path d="M15.5375 19.835H22.9475C23.0474 19.8363 23.1439 19.7982 23.2159 19.729C23.288 19.6597 23.3299 19.5649 23.3325 19.465V16.7925C23.3299 16.6925 23.288 16.5977 23.2159 16.5284C23.1439 16.4592 23.0474 16.4211 22.9475 16.4225H15.5375C15.4376 16.4211 15.3411 16.4592 15.2691 16.5284C15.197 16.5977 15.1551 16.6925 15.1525 16.7925V19.465C15.1551 19.5649 15.197 19.6597 15.2691 19.729C15.3411 19.7982 15.4376 19.8363 15.5375 19.835V19.835ZM15.9225 17.1625H22.5625V19.095H15.9225V17.1625ZM27.2875 14.7175L25.435 13.8275C25.3816 13.8004 25.3224 13.7867 25.2625 13.7875H25.185V11.485C25.1814 11.3902 25.1411 11.3005 25.0725 11.235L23.6825 9.89995C23.6093 9.82938 23.5117 9.78995 23.41 9.78995H15.9225V8.36995C15.9215 8.32038 15.9108 8.27148 15.8909 8.22605C15.871 8.18062 15.8424 8.13956 15.8067 8.1052C15.7709 8.07084 15.7287 8.04386 15.6825 8.0258C15.6364 8.00774 15.5871 7.99896 15.5375 7.99995H13.685C13.6354 7.99896 13.5861 8.00774 13.54 8.0258C13.4938 8.04386 13.4516 8.07084 13.4158 8.1052C13.3801 8.13956 13.3515 8.18062 13.3316 8.22605C13.3117 8.27148 13.301 8.32038 13.3 8.36995V9.77995H12.3C12.1983 9.77995 12.1007 9.81938 12.0275 9.88995L10.91 10.9625L10.72 10.78C10.6468 10.7094 10.5492 10.67 10.4475 10.67H4.885C4.78506 10.6686 4.68862 10.7067 4.61656 10.7759C4.5445 10.8452 4.50262 10.94 4.5 11.04V23.63C4.50098 23.6795 4.51171 23.7284 4.53159 23.7739C4.55146 23.8193 4.5801 23.8604 4.61585 23.8947C4.6516 23.9291 4.69377 23.9561 4.73995 23.9741C4.78614 23.9922 4.83542 24.0009 4.885 24H9.98C10.0259 24 10.0716 23.9924 10.115 23.9775L13.7675 22.3H25.2675C25.3272 22.2995 25.3862 22.2858 25.44 22.26L27.2925 21.37C27.3555 21.3407 27.4089 21.2941 27.4465 21.2357C27.4841 21.1773 27.5044 21.1094 27.505 21.04V15.04C27.5025 14.9712 27.4809 14.9046 27.4424 14.8476C27.404 14.7906 27.3503 14.7455 27.2875 14.7175V14.7175ZM13.885 8.80245C13.8823 8.73298 13.9069 8.66523 13.9537 8.61378C14.0005 8.56234 14.0656 8.53134 14.135 8.52745H15.11C15.1763 8.52745 15.2399 8.55379 15.2868 8.60068C15.3337 8.64756 15.36 8.71115 15.36 8.77745V9.77745H13.885V8.80245ZM12.455 10.52H23.25L24.415 11.64V13.7875H23.3325V12.3775C23.3294 12.2825 23.289 12.1927 23.22 12.1275L22.75 11.67C22.6775 11.6002 22.5806 11.5616 22.48 11.5625H13.22C13.1194 11.5616 13.0225 11.6002 12.95 11.67L12.295 12.3L11.45 11.485L12.455 10.52ZM22.405 12.5925V13.6375H13.905L13.0575 12.8225L13.4425 12.4525H22.25L22.405 12.5925ZM8.18 22.985C8.18033 23.0111 8.17547 23.0371 8.16569 23.0613C8.15591 23.0856 8.14142 23.1076 8.12304 23.1262C8.10467 23.1448 8.08279 23.1596 8.05866 23.1697C8.03454 23.1798 8.00865 23.185 7.9825 23.185H5.5325C5.50635 23.185 5.48046 23.1798 5.45634 23.1697C5.43221 23.1596 5.41033 23.1448 5.39195 23.1262C5.37358 23.1076 5.35909 23.0856 5.34931 23.0613C5.33953 23.0371 5.33467 23.0111 5.335 22.985V11.61C5.33467 11.5838 5.33953 11.5579 5.34931 11.5336C5.35909 11.5094 5.37358 11.4873 5.39195 11.4687C5.41033 11.4501 5.43221 11.4353 5.45634 11.4252C5.48046 11.4151 5.50635 11.41 5.5325 11.41H7.9825C8.00865 11.41 8.03454 11.4151 8.05866 11.4252C8.08279 11.4353 8.10467 11.4501 8.12304 11.4687C8.14142 11.4873 8.15591 11.5094 8.16569 11.5336C8.17547 11.5579 8.18033 11.5838 8.18 11.61V22.985ZM24.8775 21.56H13.685C13.639 21.5597 13.5934 21.5673 13.55 21.5825L9.91 23.25H8.975V11.41H10.2825L13.4125 14.41C13.4857 14.4805 13.5834 14.52 13.685 14.52H24.8775V21.56ZM26.73 20.81L25.6475 21.33V14.75L26.73 15.27V20.81Z" fill="#5E5E5E"/>
</svg>
